<svg xmlns="http://www.w3.org/2000/svg" width="36" height="36" viewBox="0 0 36 36"><g transform="translate(-545 -4450)"><rect width="36" height="36" transform="translate(545 4450)" fill="none"/><path d="M8-.75A2.753,2.753,0,0,1,10.75,2V3.25h6.5V2a2.75,2.75,0,0,1,5.5,0V3.25H25A3.754,3.754,0,0,1,28.75,7v3.75H-.75V7A3.754,3.754,0,0,1,3,3.25H5.25V2A2.753,2.753,0,0,1,8-.75Zm10.75,5.5H9.25V2a1.25,1.25,0,0,0-2.5,0V4.75H3A2.253,2.253,0,0,0,.75,7V9.25h26.5V7A2.253,2.253,0,0,0,25,4.75H21.25V2a1.25,1.25,0,0,0-2.5,0Zm-19.5,6.5h29.5V29A3.754,3.754,0,0,1,25,32.75H3A3.754,3.754,0,0,1-.75,29Zm28,1.5H.75V29A2.253,2.253,0,0,0,3,31.25H25A2.253,2.253,0,0,0,27.25,29ZM5,15.25h6A1.752,1.752,0,0,1,12.75,17v6A1.752,1.752,0,0,1,11,24.75H5A1.752,1.752,0,0,1,3.25,23V17A1.752,1.752,0,0,1,5,15.25Zm6,8a.253.253,0,0,0,.25-.25V17a.253.253,0,0,0-.25-.25H5a.253.253,0,0,0-.25.25v6a.253.253,0,0,0,.25.25Z" transform="translate(549.5 4451.5)" fill="#40bfef"/></g></svg>