<svg xmlns="http://www.w3.org/2000/svg" width="19.708" height="30.096" viewBox="0 0 19.708 30.096"><path d="M15.492,30.075l-11.32-.057a3.92,3.92,0,0,1-1.624-.361,4.216,4.216,0,0,1-1.326-.968A4.554,4.554,0,0,1,.328,27.26,4.76,4.76,0,0,1,0,25.516V13.782H0V4.58A4.76,4.76,0,0,1,.328,2.836a4.554,4.554,0,0,1,.894-1.429A4.216,4.216,0,0,1,2.548.439,3.92,3.92,0,0,1,4.172.078L15.492.021A3.944,3.944,0,0,1,17.13.368a4.2,4.2,0,0,1,1.341.961,4.531,4.531,0,0,1,.905,1.43,4.739,4.739,0,0,1,.332,1.753V25.586a4.739,4.739,0,0,1-.332,1.753,4.531,4.531,0,0,1-.905,1.43,4.2,4.2,0,0,1-1.341.961A3.944,3.944,0,0,1,15.492,30.075ZM1.91,17.45v8.073a2.72,2.72,0,0,0,.178.973,2.552,2.552,0,0,0,.485.8,2.29,2.29,0,0,0,.719.54,2.073,2.073,0,0,0,.88.2l11.32.049a2.088,2.088,0,0,0,.888-.194,2.284,2.284,0,0,0,.726-.536,2.536,2.536,0,0,0,.49-.8,2.706,2.706,0,0,0,.18-.977V4.517a2.706,2.706,0,0,0-.18-.977,2.536,2.536,0,0,0-.49-.8,2.284,2.284,0,0,0-.726-.536,2.088,2.088,0,0,0-.888-.194l-11.32.049a2.073,2.073,0,0,0-.88.2,2.29,2.29,0,0,0-.719.54,2.552,2.552,0,0,0-.485.8,2.72,2.72,0,0,0-.178.973V11.96l.016.009.034.02.034.021.034.021.033.022.016.011.037.027.037.028.037.029.037.03.034.03.035.032.036.034.037.037.005.005,2.713,2.813L10.57,9.441,10.6,9.41l.031-.029.03-.028.03-.027L10.72,9.3l.028-.022.032-.024.035-.026.039-.028.044-.03.04-.026.036-.022L11,9.108l.037-.02.034-.018.037-.018.039-.018.042-.018L11.236,9l.039-.015.038-.014.036-.012.034-.011.039-.011.039-.01.04-.009.041-.009.046-.009.047-.008.049-.007.052-.006.093-.007.089,0,.089,0,.093.007.039,0,.045.006.051.008.056.011.048.01.046.011.045.012.043.013.039.013.04.014.04.015.04.016.041.017.041.019.042.021.044.023.045.025.044.026.044.028.044.03.038.026.038.028.038.029.038.03.017.015.033.029.03.028.028.027.027.026.028.029.032.035.03.034.028.033.026.032,0,.006.031.04.029.039.027.039.025.039.027.043.023.039.019.034.015.028.016.03.019.038.018.04.018.043.019.047.019.05q.01.025.018.049c.006.016.011.033.016.049l.014.048.012.047.011.045c0,.015.007.029.01.043s.006.028.009.042.006.032.009.048l.007.048c0,.016,0,.032.006.048s0,.032,0,.048,0,.033,0,.048l0,.047c0,.015,0,.031,0,.046s0,.03,0,.045,0,.031,0,.047,0,.031,0,.047,0,.032,0,.048,0,.033,0,.05,0,.029,0,.044,0,.03-.006.045l-.007.046c0,.016-.005.031-.008.047s-.006.035-.01.053-.007.034-.011.051-.008.033-.012.05l-.014.048-.013.042-.014.042-.015.043-.016.043-.018.045-.019.043-.019.042-.02.042-.01.019-.02.038-.021.038-.022.038-.023.039-.027.042-.029.042-.031.042-.032.042-.028.034-.028.034-.03.034-.032.035-.015.016L6.488,19.3l-.007.007-.007.007-.007.007-.007.007-.007.007-.007.007-.007.007-.007.007L6.4,19.39l-.035.033-.035.031-.035.03-.039.031-.038.029-.037.027-.037.026-.042.029-.042.027-.042.025-.043.024-.012.006-.033.017-.035.017-.038.018-.041.018-.009,0L5.76,19.8l-.045.017-.044.015-.044.014-.043.012-.04.01-.037.009-.034.008-.021,0-.041.008-.042.007-.044.006-.046.005-.086.007-.09,0-.1,0-.1-.008-.044,0-.045-.006L4.77,19.9l-.046-.009-.039-.008-.047-.011-.053-.014-.057-.017-.039-.013-.039-.014L4.412,19.8l-.038-.015-.045-.019-.041-.019-.039-.019-.036-.018L4.2,19.7l-.039-.022-.039-.023-.04-.025L4.039,19.6l-.016-.011-.035-.025-.036-.027-.035-.028-.035-.029-.043-.037-.04-.036-.038-.036-.036-.037Zm-.894-3.732,4.059,4.211,0,0L1.025,13.72H1.016Zm10.9-2.853-6.757,7,.019-.013,6.74-6.982v0l0,0v0h0l0,0,0,0h-.006ZM11.44,27.427l-3.234-.013a1.68,1.68,0,0,1-.687-.15,1.78,1.78,0,0,1-.561-.4,1.9,1.9,0,0,1-.379-.6,1.967,1.967,0,0,1,0-1.452,1.879,1.879,0,0,1,.379-.593,1.762,1.762,0,0,1,.561-.4,1.673,1.673,0,0,1,.687-.145l3.234.009a1.685,1.685,0,0,1,.689.149,1.783,1.783,0,0,1,.563.4,1.9,1.9,0,0,1,.38.6,1.97,1.97,0,0,1,0,1.456,1.884,1.884,0,0,1-.38.593,1.766,1.766,0,0,1-.563.4A1.678,1.678,0,0,1,11.44,27.427Z" fill="#40bfef"/></svg>