<svg xmlns="http://www.w3.org/2000/svg" width="11.996" height="12" viewBox="0 0 11.996 12"><path d="M-2935.18,21636.09l-4.512-4.51-4.507,4.51a.748.748,0,0,1-1.059,0l-.212-.213a.747.747,0,0,1,0-1.059l4.508-4.508-4.508-4.506a.754.754,0,0,1,0-1.064l.212-.211a.748.748,0,0,1,1.059,0l4.51,4.51,4.51-4.51a.748.748,0,0,1,1.059,0l.206.211a.747.747,0,0,1,0,1.059l-4.506,4.51,4.511,4.51a.757.757,0,0,1,0,1.059l-.212.213a.745.745,0,0,1-.529.219A.746.746,0,0,1-2935.18,21636.09Z" transform="translate(2945.689 -21624.309)"/></svg>