<svg xmlns="http://www.w3.org/2000/svg" width="36" height="36" viewBox="0 0 36 36"><g transform="translate(-523 -4495)"><rect width="36" height="36" transform="translate(523 4495)" fill="none"/><path d="M-3965.691,254h-11.448a2.475,2.475,0,0,1-2.471-2.472V236.439a.392.392,0,0,1-.391-.391v-2.862a.391.391,0,0,1,.391-.391v-.52a.391.391,0,0,1-.391-.39v-2.863a.391.391,0,0,1,.391-.39v-4.163a2.474,2.474,0,0,1,2.471-2.471h11.448a2.474,2.474,0,0,1,2.471,2.471v4.684a.386.386,0,0,1,.237.08c-.067.186-.13.383-.192.573l0,.014a6.6,6.6,0,0,1-.293.807l-.527,1.054v-7.212a1.693,1.693,0,0,0-1.691-1.691h-1.974a.779.779,0,0,0-.108.391.781.781,0,0,1-.78.78h-5.724a.781.781,0,0,1-.78-.78.779.779,0,0,0-.108-.391h-1.974a1.693,1.693,0,0,0-1.691,1.691v27.057a1.693,1.693,0,0,0,1.691,1.691h11.448a1.693,1.693,0,0,0,1.691-1.691V248.32c.136.268.3.592.464.924l.063.127a5.6,5.6,0,0,1,.253.682v1.476A2.475,2.475,0,0,1-3965.691,254Zm-7.025-31.35a.26.26,0,0,0-.26.261.26.26,0,0,0,.26.26h2.6a.26.26,0,0,0,.26-.26.26.26,0,0,0-.26-.261ZM-3959.885,252a16.73,16.73,0,0,1-1.884-.073,1.456,1.456,0,0,1-.851-.425,4.7,4.7,0,0,1-.559-1.323l-.041-.126v-2.811h-.679c-.034,0-.067,0-.1,0v1.075h0l-.064-.129-.056-.113a2.121,2.121,0,0,1-1.906-2.107V234.036a2.121,2.121,0,0,1,1.906-2.107l.057-.115.066-.131v1.079c.034,0,.067,0,.1,0h.679v14.482h8.692a1.279,1.279,0,0,0,1.278-1.278V234.036a1.279,1.279,0,0,0-1.278-1.278h-8.692v-1a.391.391,0,0,0,.39-.39v-1.822a.386.386,0,0,0-.154-.31,2.522,2.522,0,0,1,.363-.735,1.452,1.452,0,0,1,.851-.427,16.726,16.726,0,0,1,1.884-.073c.211,0,.437,0,.672,0s.461,0,.672,0a16.726,16.726,0,0,1,1.884.073,1.457,1.457,0,0,1,.852.427,4.7,4.7,0,0,1,.557,1.318l0,.008a6.623,6.623,0,0,0,.292.8l.246.492.127.255.277.553a2.121,2.121,0,0,1,1.905,2.107v1.279a.427.427,0,0,1,.426.426V238.3a.426.426,0,0,1-.426.426v1.7a.427.427,0,0,1,.426.426v2.556a.427.427,0,0,1-.426.427v2.13a2.12,2.12,0,0,1-1.905,2.107l-.209.419-.067.135-.325.65-.048.1a6.678,6.678,0,0,0-.293.808,4.739,4.739,0,0,1-.559,1.323,1.461,1.461,0,0,1-.852.426,16.725,16.725,0,0,1-1.884.073c-.209,0-.435,0-.672,0S-3959.673,252-3959.885,252ZM-3964,232.763a1.283,1.283,0,0,0-1.177,1.274v11.927a1.283,1.283,0,0,0,1.177,1.274Z" transform="translate(4507 4275)" fill="#40bfef"/><path d="M-3965.691,254.5h-11.448a2.975,2.975,0,0,1-2.971-2.972V236.785a.89.89,0,0,1-.391-.737v-2.862a.888.888,0,0,1,.283-.651l-.021-.021a.883.883,0,0,1-.261-.629v-2.863a.889.889,0,0,1,.391-.736v-3.817a2.974,2.974,0,0,1,2.971-2.971h11.448a2.974,2.974,0,0,1,2.971,2.971v3.45a2.093,2.093,0,0,1,.885-.344,17.136,17.136,0,0,1,1.949-.077c.211,0,.437,0,.672,0s.461,0,.672,0a17.139,17.139,0,0,1,1.948.077,1.944,1.944,0,0,1,1.169.6,4.8,4.8,0,0,1,.65,1.484l0,.012a6.517,6.517,0,0,0,.264.733l.374.747.162.325a2.617,2.617,0,0,1,2.072,2.559v.925a.925.925,0,0,1,.426.779V238.3a.925.925,0,0,1-.426.779v1a.925.925,0,0,1,.426.779v2.556a.926.926,0,0,1-.426.78v1.776a2.617,2.617,0,0,1-2.072,2.559l-.03.059-.133.266-.264.528-.109.218a6.6,6.6,0,0,0-.263.733l0,.005a4.855,4.855,0,0,1-.652,1.491,1.95,1.95,0,0,1-1.17.6,17.134,17.134,0,0,1-1.949.077c-.21,0-.436,0-.672,0s-.459,0-.672,0h0a17.142,17.142,0,0,1-1.949-.077,2.083,2.083,0,0,1-.931-.376A2.976,2.976,0,0,1-3965.691,254.5Zm-11.448-31.22a1.193,1.193,0,0,0-1.191,1.191v27.057a1.193,1.193,0,0,0,1.191,1.191h11.448a1.192,1.192,0,0,0,1.191-1.191v-3.016a2.617,2.617,0,0,1-2.029-2.549V234.036a2.617,2.617,0,0,1,2.029-2.549v-7.016a1.192,1.192,0,0,0-1.191-1.191h-1.586a1.282,1.282,0,0,1-1.275,1.171h-5.724a1.282,1.282,0,0,1-1.275-1.171Zm14.419,26.694.017.051a4.977,4.977,0,0,0,.465,1.153.975.975,0,0,0,.534.252,15.643,15.643,0,0,0,1.819.069c.21,0,.435,0,.666,0h.012c.234,0,.458,0,.666,0a15.634,15.634,0,0,0,1.819-.069.979.979,0,0,0,.535-.253,5.055,5.055,0,0,0,.463-1.151l0-.007a6.888,6.888,0,0,1,.32-.873l.109-.219.265-.529.133-.265.143-.287.053-.106h-8.022Zm0-3.233h8.192a.778.778,0,0,0,.778-.778V234.036a.778.778,0,0,0-.778-.778h-8.192Zm-1.78-13.2a.775.775,0,0,0-.177.491v11.927a.775.775,0,0,0,.177.491Zm11.75,9.789h.278v-2.408h-.278Zm0-5.112h.278v-2.407h-.278Zm-26.75-2.282h.171V233.3h-.171Zm16.781-3.681h8.022l-.053-.106-.276-.552-.374-.748a6.8,6.8,0,0,1-.32-.87l0-.011a4.987,4.987,0,0,0-.463-1.149.975.975,0,0,0-.535-.253,15.641,15.641,0,0,0-1.819-.069c-.209,0-.433,0-.666,0h-.012c-.234,0-.458,0-.666,0a15.626,15.626,0,0,0-1.819.069.97.97,0,0,0-.533.253,1.367,1.367,0,0,0-.179.336.888.888,0,0,1,.088.387v1.822a.889.889,0,0,1-.39.735Zm-16.781-3.124v2.642h.171v-2.642Zm9.921-5.684h1.027a.28.28,0,0,0,.28-.28,1.279,1.279,0,0,1,.176-.642l.017-.028h-1.395a.756.756,0,0,1,.121.411A.758.758,0,0,1-3969.58,223.451Zm-5.17-.951.017.029a1.279,1.279,0,0,1,.176.642.28.28,0,0,0,.28.28h1.027a.758.758,0,0,1-.226-.54.758.758,0,0,1,.121-.411Z" transform="translate(4507 4275)" fill="rgba(0,0,0,0)"/></g></svg>