<svg xmlns="http://www.w3.org/2000/svg" width="36" height="36" viewBox="0 0 36 36"><g transform="translate(-1704 -1844)"><rect width="36" height="36" transform="translate(1704 1844)" fill="none"/><g transform="translate(1705.444 1849.369)"><path d="M366.511,503.089h-7.145a3.3,3.3,0,0,1-3.017-2.036c-.723-1.472-1.952-4.016-2.621-5.4a.75.75,0,0,1,1.351-.652c.668,1.383,1.9,3.923,2.617,5.392a1.809,1.809,0,0,0,1.67,1.2h7.145c1.281,0,1.445-.629,1.445-1.177,0-.737-.322-.974-.657-1.09l-6.156-.643a.75.75,0,0,1-.612-.453l-2.507-5.9,0-.011c-.838-2.065-2.256-3.156-4.1-3.156-2.541,0-4.072,1.523-4.551,4.528l-1.012,7.227h7.335a.75.75,0,0,1,0,1.5h-8.2a.75.75,0,0,1-.743-.854l1.133-8.087,0-.013a7.3,7.3,0,0,1,2.083-4.365,5.63,5.63,0,0,1,3.95-1.435,5.364,5.364,0,0,1,3.184,1,6.856,6.856,0,0,1,2.3,3.084l2.332,5.487,5.795.605a.751.751,0,0,1,.142.029,2.452,2.452,0,0,1,1.78,2.545C369.456,502.063,368.327,503.089,366.511,503.089Z" transform="translate(-347.494 -477.077)" fill="#40bfef"/><path d="M360.474,475.841a5.616,5.616,0,1,1,5.616-5.616A5.622,5.622,0,0,1,360.474,475.841Zm0-9.732a4.116,4.116,0,1,0,4.116,4.116A4.121,4.121,0,0,0,360.474,466.109Z" transform="translate(-351.619 -465.359)" fill="#40bfef"/><path d="M399.074,489.218a.751.751,0,0,1-.171-.02l-15.252-3.568a.75.75,0,0,1-.579-.73V472.294a.75.75,0,0,1,.9-.735l15.252,3.076a.75.75,0,0,1,.6.735v13.1a.75.75,0,0,1-.75.75Zm-14.5-4.913,13.752,3.217V475.984l-13.752-2.774Z" transform="translate(-365.962 -468.884)" fill="#40bfef"/><path d="M389.682,509.048a.749.749,0,0,1-.175-.021l-5.859-1.408L384,506.16l5.606,1.348,2.326-1.071-9.537-2.293-3.085,1.421-.23.956-1.465-.352a.75.75,0,0,1-.138-1.41L382,502.672a.75.75,0,0,1,.489-.048l11.893,2.86a.75.75,0,0,1,.138,1.41L390,508.979A.75.75,0,0,1,389.682,509.048Z" transform="translate(-362.895 -484.674)" fill="#40bfef"/><path d="M.75,2.331H-.75V0H.75Z" transform="translate(23.174 17.252)" fill="#40bfef"/><path d="M.75,2.331H-.75V0H.75Z" transform="translate(26.103 17.959)" fill="#40bfef"/><path d="M.154.781A.753.753,0,0,1,0,.766L-.149.735A.75.75,0,0,1-.735-.149.75.75,0,0,1,.149-.735L.3-.7A.75.75,0,0,1,.154.781Z" transform="translate(19.399 5.408)" fill="#40bfef"/></g></g></svg>