<svg xmlns="http://www.w3.org/2000/svg" width="36" height="36.25" viewBox="0 0 36 36.25"><g transform="translate(-545 -4539.75)"><rect width="36" height="36" transform="translate(545 4540)" fill="none"/><path d="M12-.75a6.753,6.753,0,0,1,6.165,4H20A4.755,4.755,0,0,1,24.75,8V28A4.755,4.755,0,0,1,20,32.75H4A4.755,4.755,0,0,1-.75,28V8A4.755,4.755,0,0,1,4,3.25H5.835A6.753,6.753,0,0,1,12-.75Zm8,32A3.254,3.254,0,0,0,23.25,28V8A3.254,3.254,0,0,0,20,4.75H17.125l-.176-.5a5.249,5.249,0,0,0-9.9,0l-.176.5H4A3.254,3.254,0,0,0,.75,8V28A3.254,3.254,0,0,0,4,31.25Zm-8-28A2.75,2.75,0,1,1,9.25,6,2.753,2.753,0,0,1,12,3.25Zm0,4A1.25,1.25,0,1,0,10.75,6,1.251,1.251,0,0,0,12,7.25Zm-6,7.5A2.25,2.25,0,1,1,3.75,17,2.253,2.253,0,0,1,6,14.75Zm0,3A.75.75,0,1,0,5.25,17,.751.751,0,0,0,6,17.75Zm5-2.5h8a1.75,1.75,0,0,1,0,3.5H11a1.75,1.75,0,0,1,0-3.5Zm8,2a.25.25,0,0,0,0-.5H11a.25.25,0,0,0,0,.5ZM6,20.75A2.25,2.25,0,1,1,3.75,23,2.253,2.253,0,0,1,6,20.75Zm0,3A.75.75,0,1,0,5.25,23,.751.751,0,0,0,6,23.75Zm5-2.5h8a1.75,1.75,0,0,1,0,3.5H11a1.75,1.75,0,0,1,0-3.5Zm8,2a.25.25,0,0,0,0-.5H11a.25.25,0,0,0,0,.5Z" transform="translate(551.5 4540.5)" fill="#40bfef"/></g></svg>