<svg xmlns="http://www.w3.org/2000/svg" width="80" height="80" viewBox="0 0 80 80"><g transform="translate(-2787 2382)"><path d="M40,2A38.011,38.011,0,0,0,25.209,75.015,38.01,38.01,0,0,0,54.791,4.985,37.76,37.76,0,0,0,40,2m0-2A40,40,0,1,1,0,40,40,40,0,0,1,40,0Z" transform="translate(2787 -2382)" fill="#c91e27"/><path d="M0,27.4a1,1,0,0,1-.7-.288A1,1,0,0,1-.712,25.7l26-26.4A1,1,0,0,1,26.7-.712,1,1,0,0,1,26.712.7l-26,26.4A1,1,0,0,1,0,27.4Z" transform="translate(2814 -2355)" fill="#c91e27"/><path d="M26,1a1,1,0,0,1-.713-.3l-26-26.4A1,1,0,0,1-.7-27.112,1,1,0,0,1,.712-27.1l26,26.4A1,1,0,0,1,26.7.712,1,1,0,0,1,26,1Z" transform="translate(2840 -2355) rotate(180)" fill="#c91e27"/></g></svg>