<svg xmlns="http://www.w3.org/2000/svg" width="32.5" height="33.5" viewBox="0 0 32.5 33.5"><path d="M36.951-.75A10.4,10.4,0,0,1,44.306,2.3l.344.344A10.413,10.413,0,0,1,47.7,10a10.168,10.168,0,0,1-1.106,4.627,1.708,1.708,0,0,1-1.035.861L39.7,17.247h.822a1.75,1.75,0,0,1,1.237,2.987l-1.4,1.4a1.769,1.769,0,0,1-.72.434l-.013,0L35.215,23.4a1.548,1.548,0,0,1,.85.972,1.49,1.49,0,0,1-.65,1.7,16.7,16.7,0,0,1-9.095,2.684H22.382L19.04,32.092a2.213,2.213,0,0,1-1.584.658,2.25,2.25,0,0,1-1.592-.655,2.244,2.244,0,0,1,0-3.182L31.738,13.037a.242.242,0,0,0-.054-.267.253.253,0,0,0-.352,0L18.2,25.9V20.629A16.754,16.754,0,0,1,23.109,8.784L29.59,2.3A10.408,10.408,0,0,1,36.951-.75Zm2.238,21.388a.279.279,0,0,0,.112-.064l1.4-1.4a.234.234,0,0,0,.054-.272.238.238,0,0,0-.23-.155H38.513a1.325,1.325,0,0,1-.395-2.59l.01,0,7-2.1a.2.2,0,0,0,.126-.1l0-.008A8.661,8.661,0,0,0,46.2,10a8.856,8.856,0,0,0-2.611-6.3l-.344-.344A8.96,8.96,0,0,0,36.951.75a8.851,8.851,0,0,0-6.3,2.612L24.17,9.844A15.154,15.154,0,0,0,19.7,20.629v1.647L30.271,11.709a1.751,1.751,0,0,1,2.973,1.018h.924L16.921,29.973a.747.747,0,0,0-.221.534.732.732,0,0,0,.218.522.759.759,0,0,0,.537.221.726.726,0,0,0,.521-.216l3.785-3.786h4.56A15.2,15.2,0,0,0,34.6,24.806a.168.168,0,0,0,.024-.019c-.007-.014-.03-.039-.1-.039a1.325,1.325,0,0,1-.395-2.59l.01,0Z" transform="translate(-15.2 0.75)" fill="#40bfef"/></svg>