<svg xmlns="http://www.w3.org/2000/svg" width="41.25" height="70.43" viewBox="0 0 41.25 70.43"><path d="M41.25,30.215v-7.5A1.25,1.25,0,0,0,40,21.465v-3.75a6.239,6.239,0,0,0-5.591-6.184L32.5,7.715c-.712-1.425-1.472-5.032-2.5-6.25A4.3,4.3,0,0,0,27.5.215a66.244,66.244,0,0,0-7.5-.2,66.244,66.244,0,0,0-7.5.2A4.3,4.3,0,0,0,10,1.465C8.972,2.683,8.213,6.29,7.5,7.715L5.591,11.531A6.239,6.239,0,0,0,0,17.715v35A6.239,6.239,0,0,0,5.591,58.9L7.5,62.715c.713,1.425,1.472,5.033,2.5,6.25a4.3,4.3,0,0,0,2.5,1.25,66.245,66.245,0,0,0,7.5.2,66.245,66.245,0,0,0,7.5-.2,4.3,4.3,0,0,0,2.5-1.25c1.028-1.217,1.788-4.825,2.5-6.25L34.409,58.9A6.239,6.239,0,0,0,40,52.715v-6.25a1.25,1.25,0,0,0,1.25-1.25v-7.5A1.25,1.25,0,0,0,40,36.465v-5a1.25,1.25,0,0,0,1.25-1.25m-3.75,22.5a3.755,3.755,0,0,1-3.75,3.75H6.25a3.755,3.755,0,0,1-3.75-3.75v-35a3.755,3.755,0,0,1,3.75-3.75h27.5a3.755,3.755,0,0,1,3.75,3.75Z"/></svg>