<svg xmlns="http://www.w3.org/2000/svg" width="22" height="22" viewBox="0 0 22 22"><path d="M10.827,25a.776.776,0,0,0,.793-.757V18.19a.776.776,0,0,1,.793-.757h3.173a.776.776,0,0,1,.793.757v6.053a.776.776,0,0,0,.793.757h4.76a.776.776,0,0,0,.793-.757v-9.08a.776.776,0,0,1,.793-.757h.793a.706.706,0,0,0,.47-.177.634.634,0,0,0,.031-.927L15.157,3.478q-.035-.036-.072-.069a1.641,1.641,0,0,0-2.243.069L3.186,13.3A.639.639,0,0,0,3,13.751a.672.672,0,0,0,.687.656h.793a.776.776,0,0,1,.793.757v9.08A.776.776,0,0,0,6.067,25Z" transform="translate(-3 -3)" fill-rule="evenodd"/></svg>