<svg xmlns="http://www.w3.org/2000/svg" width="181" height="64.827" viewBox="0 0 181 64.827"><g transform="translate(-3976 -950.5)"><g transform="translate(3976 950.5)"><g transform="translate(54.354 3.424)"><g transform="translate(4.15)"><path d="M409.9,23.994l-.423,2.421a3.932,3.932,0,0,1,1.482-1.877,6.138,6.138,0,0,1,3.418-1c2.541,0,4.236,1.452,4.236,3.661a9.543,9.543,0,0,1-.151,1.513l-1.695,10.2h-5.657l1.482-8.956a6.644,6.644,0,0,0,.151-1.18c0-.787-.454-1.21-1.331-1.21-1.18,0-1.906.787-2.179,2.39l-1.513,8.956H402.18l2.511-14.916h5.2Z" transform="translate(-402.18 -23.54)" fill="#40bfef"/><path d="M528.577,33.1a5.965,5.965,0,0,0-.09.908,2.021,2.021,0,0,0,2.239,2.057,2.559,2.559,0,0,0,2.541-1.877L538.29,35a6.972,6.972,0,0,1-2.511,3.087A8.647,8.647,0,0,1,530.3,39.9c-4.508,0-7.473-2.813-7.473-7.08a8.538,8.538,0,0,1,8.805-8.654c4.508,0,7.382,2.813,7.382,7.231a7.875,7.875,0,0,1-.182,1.695H528.579Zm4.872-2.874a3.837,3.837,0,0,0,.09-.726,1.853,1.853,0,0,0-1.877-1.967c-1.361,0-2.359,1.028-2.662,2.693Z" transform="translate(-505.28 -24.078)" fill="#40bfef"/><path d="M657.477,31.25a8.5,8.5,0,0,1-8.805,8.654,7.377,7.377,0,0,1-5.355-2,6.162,6.162,0,0,1-2-4.931A8.422,8.422,0,0,1,650,24.17c4.539,0,7.473,2.783,7.473,7.08Zm-9.621-1.543a17.416,17.416,0,0,0-.7,4.236c0,1.482.636,2.33,1.754,2.33,1,0,1.574-.575,2.028-2.028a15.973,15.973,0,0,0,.636-4.146c0-1.513-.636-2.359-1.725-2.359C648.915,27.74,648.279,28.345,647.856,29.706Z" transform="translate(-606.533 -24.078)" fill="#40bfef"/></g><g transform="translate(0 12.648)"><path d="M382.273,160.173l-.423,2.39c1.331-2.118,2.33-2.783,4.206-2.783,3.116,0,5.113,2.48,5.113,6.385a11.374,11.374,0,0,1-2.028,6.536,5.924,5.924,0,0,1-5.023,2.723,3.857,3.857,0,0,1-3.721-2.087l-1.09,6.505H373.65l3.3-19.667h5.326Zm-1.21,9.834c0,1.12.605,1.815,1.543,1.815,1.059,0,1.664-.756,2.118-2.572a18.057,18.057,0,0,0,.544-3.539c0-1.423-.544-2.179-1.6-2.179-.969,0-1.482.515-1.967,2.028a38.968,38.968,0,0,0-.636,4.448Z" transform="translate(-373.65 -152.61)" fill="#fff"/><path d="M501.133,159.814l-.605,3.57c1.21-2.874,2.572-4.024,4.751-4.024.151,0,.393.031.7.061l-.666,5.326c-.544-.031-.787-.031-1.09-.031-2.359,0-3.388,1.059-3.872,3.933l-1.029,6.082H493.66l2.511-14.916h4.962Z" transform="translate(-476.203 -152.251)" fill="#fff"/><path d="M588.227,167.06a8.5,8.5,0,0,1-8.8,8.654,7.378,7.378,0,0,1-5.355-2,6.162,6.162,0,0,1-2-4.931,8.423,8.423,0,0,1,8.683-8.805c4.539,0,7.473,2.783,7.473,7.08Zm-9.621-1.543a17.419,17.419,0,0,0-.7,4.236c0,1.482.636,2.33,1.754,2.33,1,0,1.574-.575,2.028-2.028a15.968,15.968,0,0,0,.636-4.146c0-1.513-.636-2.359-1.725-2.359C579.665,163.55,579.029,164.155,578.606,165.516Z" transform="translate(-543.207 -152.781)" fill="#fff"/><path d="M690.805,159.814l-.423,2.421a3.933,3.933,0,0,1,1.482-1.877,6.139,6.139,0,0,1,3.419-1c2.541,0,4.236,1.452,4.236,3.661a9.547,9.547,0,0,1-.151,1.513l-1.695,10.2h-5.657l1.482-8.956a6.652,6.652,0,0,0,.151-1.18c0-.787-.454-1.21-1.331-1.21-1.18,0-1.906.787-2.179,2.39l-1.513,8.956H683.09l2.511-14.916h5.2Z" transform="translate(-638.077 -152.251)" fill="#fff"/><path d="M805.653,132.969a3.447,3.447,0,0,1-.061-.726c0-.423.03-1.12.09-1.725a5.435,5.435,0,0,1-4.9,2.784c-2.783,0-4.75-1.785-4.75-4.3,0-2.239,1.331-3.933,3.752-4.78,1.331-.484,2.148-.605,5.96-.938l1-.09a3.28,3.28,0,0,0,.182-.847c0-.756-.666-1.21-1.725-1.21a2.569,2.569,0,0,0-2.482,1.634l-4.872-.969a5.773,5.773,0,0,1,2.179-2.662,10.267,10.267,0,0,1,5.9-1.482c4.266,0,6.867,1.574,6.867,4.146,0,.726-.454,3.692-1.3,8.26a11.859,11.859,0,0,0-.151,1.754,6.447,6.447,0,0,0,.121,1.149H805.65Zm-2.3-6.414a2.115,2.115,0,0,0-1.21,1.936,1.192,1.192,0,0,0,1.3,1.241,2.663,2.663,0,0,0,2.269-1.543,7.629,7.629,0,0,0,.484-2.3A6.316,6.316,0,0,0,803.353,126.555Zm7.292-16.065,1.028,2.784-7.049,2.541-.06-1.906,6.081-3.418Z" transform="translate(-734.588 -110.49)" fill="#fff"/><path d="M897.74,143.25c-.364,2.179-.726,3.087-1.482,3.933-1.241,1.362-2.965,1.936-5.718,1.936a12.056,12.056,0,0,1-2.359-.241l.423-4.085a4.959,4.959,0,0,0,1.059.121c1.6,0,2.088-.423,2.3-1.936.061-.393.121-.787.212-1.21l2.149-12.89h5.839l-2.421,14.372Zm2.631-15.7h-5.839l.726-4.387H901.1Z" transform="translate(-813.333 -121.317)" fill="#fff"/><path d="M975.258,168.906a5.936,5.936,0,0,0-.09.908,2.021,2.021,0,0,0,2.239,2.057,2.559,2.559,0,0,0,2.541-1.877l5.023.818a6.972,6.972,0,0,1-2.511,3.087,8.647,8.647,0,0,1-5.477,1.815c-4.508,0-7.473-2.813-7.473-7.08a8.538,8.538,0,0,1,8.805-8.654c4.508,0,7.382,2.813,7.382,7.231a7.875,7.875,0,0,1-.182,1.695H975.259Zm4.872-2.874a3.847,3.847,0,0,0,.09-.726,1.853,1.853,0,0,0-1.877-1.967c-1.362,0-2.359,1.028-2.662,2.693Z" transform="translate(-882.832 -152.781)" fill="#fff"/><path d="M1084.206,159.822l-.393,2.3a6.474,6.474,0,0,1,1.3-1.6,5.26,5.26,0,0,1,3.3-1.149,3.669,3.669,0,0,1,3.782,2.754,4.672,4.672,0,0,1,4.448-2.662c2.631,0,4.357,1.6,4.357,4.024a8.888,8.888,0,0,1-.121,1.543l-1.634,9.713h-5.657l1.482-8.834a7.062,7.062,0,0,0,.09-1.059,1.141,1.141,0,0,0-1.21-1.3,1.655,1.655,0,0,0-1.423.847,4.7,4.7,0,0,0-.515,1.785l-1.423,8.562h-5.507l1.482-8.834a11.771,11.771,0,0,0,.121-1.18,1.17,1.17,0,0,0-1.18-1.271,1.892,1.892,0,0,0-1.392.7,4.177,4.177,0,0,0-.544,1.754l-1.482,8.834h-5.477l2.511-14.916h5.083Z" transform="translate(-974.353 -152.26)" fill="#fff"/></g></g><path d="M27.135,24.563q-8.014.611-8.02,5.123,0,2.477,2.6,2.477a4.994,4.994,0,0,0,3.322-1.482q1.656-1.492,2.1-6.118h0ZM46.58,34.672,38.72,0,4.048,7.86,5.31,13.425,0,14.628,7.861,49.3l34.672-7.861-1.261-5.566,5.31-1.2Zm-8.571-4.4a39.95,39.95,0,0,0-.8,5.68,13.126,13.126,0,0,0,.3,2.6H26c-.06-.567-.09-1.024-.09-1.373,0-.985.07-2.149.2-3.493a10.831,10.831,0,0,1-9.671,5.532A9.559,9.559,0,0,1,9.644,36.8a7.931,7.931,0,0,1-2.6-6.059,9.26,9.26,0,0,1,1.4-4.975,9.921,9.921,0,0,1,3.96-3.592,17.129,17.129,0,0,1,5.253-1.77c1.781-.279,5.283-.666,10.487-1.145a5.746,5.746,0,0,0,.348-1.692c0-1.612-1.124-2.428-3.373-2.428a5.143,5.143,0,0,0-4.905,3.3l-9.58-1.959Q14.28,8.291,26.665,8.3q6.269,0,9.85,2.169a7.04,7.04,0,0,1,3.592,6.4q0,1.9-2.1,13.412Z" fill="#fff"/></g><path d="M1.855-9.863H5.37L5.1-8.282A3.869,3.869,0,0,1,6.448-9.79a3.05,3.05,0,0,1,1.441-.347A3.009,3.009,0,0,1,10.341-9a4.715,4.715,0,0,1,.928,3.071A7.443,7.443,0,0,1,9.99-1.675,3.914,3.914,0,0,1,6.6.225,2.664,2.664,0,0,1,4.141-1.162l-.71,4.3H-.322ZM5.009-6.319a22.371,22.371,0,0,0-.424,2.969,1.324,1.324,0,0,0,.268.859.916.916,0,0,0,.756.332,1.064,1.064,0,0,0,.917-.488A4.957,4.957,0,0,0,7.12-4.37,10.136,10.136,0,0,0,7.373-6.2q0-1.455-1.075-1.455Q5.37-7.656,5.009-6.319Zm8.566-3.545h3.287l-.394,2.379q1.027-2.672,3.141-2.672a2.988,2.988,0,0,1,.46.049l-.439,3.516q-.508-.029-.674-.029a2.45,2.45,0,0,0-1.793.571,3.74,3.74,0,0,0-.815,2.023L15.676,0H11.924ZM24.9.293A5.071,5.071,0,0,1,21.44-.933a4.214,4.214,0,0,1-1.4-3.345,5.7,5.7,0,0,1,1.626-4.189,5.54,5.54,0,0,1,4.106-1.641,4.968,4.968,0,0,1,3.6,1.284A4.226,4.226,0,0,1,30.7-5.654a5.64,5.64,0,0,1-1.714,4.375A5.839,5.839,0,0,1,24.9.293Zm.156-2.4q1.025,0,1.392-1.523a11.277,11.277,0,0,0,.366-2.549q0-1.562-1.133-1.562-1.006,0-1.392,1.558a11.067,11.067,0,0,0-.386,2.544Q23.906-2.109,25.059-2.109Zm19.58-7.754-.43,2.52H41.756L40.527,0H36.9l1.231-7.344h-1.6l.42-2.52h1.608a6.4,6.4,0,0,1,.74-2.466,3.294,3.294,0,0,1,1.431-1.157,5.805,5.805,0,0,1,2.393-.43,9.58,9.58,0,0,1,2.324.264l-.391,2.363a9.11,9.11,0,0,0-1.2-.107,1.818,1.818,0,0,0-1.322.359,1.749,1.749,0,0,0-.356,1.174Zm5.6-3.779-.486,2.9H45.921l.486-2.9Zm-.633,3.779L47.953,0H44.121l1.652-9.863Zm2.045,0h3.287l-.394,2.379q1.027-2.672,3.141-2.672a2.988,2.988,0,0,1,.46.049l-.439,3.516q-.508-.029-.674-.029a2.45,2.45,0,0,0-1.793.571,3.74,3.74,0,0,0-.815,2.023L53.753,0H50Zm7.822,0h3.357L62.576-8.34a3.389,3.389,0,0,1,3.04-1.816,2.463,2.463,0,0,1,2.5,1.816,3.14,3.14,0,0,1,2.948-1.768,2.936,2.936,0,0,1,2.094.737,2.594,2.594,0,0,1,.786,1.987,6.468,6.468,0,0,1-.088.967L72.786,0H69.033l.986-5.85a4.957,4.957,0,0,0,.068-.693q0-.859-.79-.859a1.013,1.013,0,0,0-.795.361,2.979,2.979,0,0,0-.493,1.387L67.062,0H63.418L64.4-5.85a5.467,5.467,0,0,0,.088-.762.763.763,0,0,0-.254-.645.853.853,0,0,0-.527-.2,1.483,1.483,0,0,0-.683.23q-.41.23-.6,1.372L61.446,0H57.822Zm25.762,0-4.709,10A6.056,6.056,0,0,1,78.4,2.928a5.3,5.3,0,0,1-2.591.6,7.773,7.773,0,0,1-1.561-.166l.01-2.646Q75.5.84,76.11.84,77.63.84,77.63.028a2.812,2.812,0,0,0-.118-.644L75.127-9.863h3.928L79.9-5.9a12.408,12.408,0,0,1,.245,1.27q.1-.186.225-.5a5.148,5.148,0,0,1,.244-.566l1.955-4.17Z" transform="translate(4068 1011.302)" fill="#40bfef"/><path d="M43.125-14.416a10.123,10.123,0,0,1,2.445.279l.4.1.017-.1h4.846L48.376.5H43.53l1.882-11.234-.424-.06a8.693,8.693,0,0,0-1.13-.1c-.714,0-.913.154-.957.2a.763.763,0,0,0-.159.332h2.489l-.6,3.52H42.179L40.95.5H36.313l1.231-7.344h-1.6l.587-3.52h1.606a6.037,6.037,0,0,1,.75-2.243,3.8,3.8,0,0,1,1.641-1.336A6.318,6.318,0,0,1,43.125-14.416Zm1.753,1.151a9.642,9.642,0,0,0-1.753-.151,5.348,5.348,0,0,0-2.186.385,2.819,2.819,0,0,0-1.221.979,5.78,5.78,0,0,0-.662,2.262l-.063.427H37.377l-.253,1.52h1.6L37.5-.5H40.1l1.229-7.344h2.454l.259-1.52H41.668l.012-.512a2.191,2.191,0,0,1,.491-1.5,2.231,2.231,0,0,1,1.687-.517,7.34,7.34,0,0,1,.785.051Zm4.769.122H46.83l-.318,1.9h2.818Zm-.633,3.779H46.2L44.712-.5H47.53ZM19.608-10.656a3.422,3.422,0,0,1,.542.056l.474.079-.4,3.2A5.96,5.96,0,0,1,21.31-8.819a6.047,6.047,0,0,1,4.462-1.789,5.471,5.471,0,0,1,3.946,1.424A4.727,4.727,0,0,1,31.2-5.654,6.142,6.142,0,0,1,29.327-.911,6.35,6.35,0,0,1,24.9.793,5.579,5.579,0,0,1,21.111-.556a4.711,4.711,0,0,1-1.572-3.721,7.234,7.234,0,0,1,.218-1.806L19.6-6.093c-.408-.024-.576-.028-.645-.028a2,2,0,0,0-1.439.424,3.21,3.21,0,0,0-.675,1.752L16.1.5H11.333l1.818-10.863h4.3l-.094.565A3.238,3.238,0,0,1,19.608-10.656ZM19.19-7.115l.317-2.54c-1.14.042-1.982.812-2.574,2.35l-.96-.261.3-1.8H14L12.514-.5h2.738l.6-3.609a4.153,4.153,0,0,1,.955-2.3,2.929,2.929,0,0,1,2.146-.717C19.01-7.121,19.088-7.119,19.19-7.115ZM24.9-.207a5.309,5.309,0,0,0,3.749-1.441A5.12,5.12,0,0,0,30.2-5.654a3.713,3.713,0,0,0-1.18-2.809,4.452,4.452,0,0,0-3.252-1.144A5.016,5.016,0,0,0,22.02-8.115a5.176,5.176,0,0,0-1.481,3.837A3.706,3.706,0,0,0,21.77-1.309,4.548,4.548,0,0,0,24.9-.207ZM57.685-10.656a3.423,3.423,0,0,1,.542.056l.474.079-.557,4.456-.467-.027c-.408-.024-.576-.028-.645-.028a2,2,0,0,0-1.439.424,3.21,3.21,0,0,0-.675,1.752L54.176.5H49.409l1.818-10.863h4.3l-.094.565A3.238,3.238,0,0,1,57.685-10.656Zm-.418,3.541.317-2.54c-1.14.042-1.982.812-2.574,2.35l-.96-.261.3-1.8H52.074L50.591-.5h2.738l.6-3.609a4.153,4.153,0,0,1,.955-2.3,2.929,2.929,0,0,1,2.146-.717C57.087-7.121,57.165-7.119,57.267-7.115Zm8.349-3.541a2.9,2.9,0,0,1,2.571,1.323,3.577,3.577,0,0,1,2.879-1.274,3.431,3.431,0,0,1,2.436.873,3.086,3.086,0,0,1,.944,2.352,6.989,6.989,0,0,1-.094,1.043v.006L73.209.5H68.442l1.084-6.429a4.367,4.367,0,0,0,.062-.614c0-.359-.1-.359-.29-.359a.517.517,0,0,0-.419.191A2.468,2.468,0,0,0,68.5-5.569L67.485.5H62.827l1.085-6.433a4.823,4.823,0,0,0,.081-.679.365.365,0,0,0-.059-.248.347.347,0,0,0-.222-.091,1.015,1.015,0,0,0-.438.166s-.2.131-.346,1.016L61.869.5H57.232l1.818-10.863h4.37l-.069.411A3.754,3.754,0,0,1,65.615-10.656Zm2.379,3.462-.348-.979a1.969,1.969,0,0,0-2.031-1.484A2.9,2.9,0,0,0,63-8.082l-.921-.34.157-.941H59.9L58.413-.5h2.611l.917-5.433c.152-.939.421-1.488.844-1.725a1.934,1.934,0,0,1,.927-.293,1.344,1.344,0,0,1,.832.3,1.236,1.236,0,0,1,.449,1.041,5.727,5.727,0,0,1-.094.842L64.009-.5h2.63l.878-5.237A3.931,3.931,0,0,1,67.994-7.194Zm5.37.7a6,6,0,0,0,.081-.888,2.1,2.1,0,0,0-.628-1.623,2.436,2.436,0,0,0-1.752-.6A2.652,2.652,0,0,0,68.557-8.1l-.349.645A1.511,1.511,0,0,1,69.3-7.9a1.218,1.218,0,0,1,1.29,1.359,5.365,5.365,0,0,1-.074.769v.008L69.625-.5h2.738ZM7.889-10.637h0a3.5,3.5,0,0,1,2.84,1.322A5.217,5.217,0,0,1,11.77-5.928,7.967,7.967,0,0,1,10.4-1.4,4.4,4.4,0,0,1,6.6.725,3.212,3.212,0,0,1,4.456,0l-.6,3.638H-.913l2.345-14H5.961l-.055.326a2.331,2.331,0,0,1,.309-.2A3.559,3.559,0,0,1,7.889-10.637ZM6.6-.275A3.414,3.414,0,0,0,9.576-1.954,6.985,6.985,0,0,0,10.77-5.928a4.257,4.257,0,0,0-.816-2.755,2.511,2.511,0,0,0-2.065-.954,2.535,2.535,0,0,0-1.209.289A3.334,3.334,0,0,0,5.535-8.028l-.924-.337.168-1h-2.5l-2.01,12H3.006L3.873-2.61l.7,1.2A2.178,2.178,0,0,0,6.6-.275Zm67.88-10.088H79.46l.869,4.093,1.918-4.093h3.775L80.978.346a6.433,6.433,0,0,1-2.337,3.019,5.818,5.818,0,0,1-2.831.66,8.309,8.309,0,0,1-1.662-.176l-.4-.082L73.76.16l.549.056c.809.083,1.415.124,1.8.124a1.991,1.991,0,0,0,.9-.144c.108-.058.116-.1.116-.168a2.3,2.3,0,0,0-.1-.515Zm4.168,1H75.772L78-.741a3.147,3.147,0,0,1,.134.769c0,.49-.262,1.312-2.019,1.312-.329,0-.775-.025-1.355-.077L74.75,2.941a7.016,7.016,0,0,0,1.06.084,4.836,4.836,0,0,0,2.35-.536A5.661,5.661,0,0,0,80.074-.08l4.373-9.283H82.883L81.058-5.47a4.668,4.668,0,0,0-.221.511l-.008.02c-.092.226-.172.4-.245.543l-.812,1.543-.129-1.739a11.36,11.36,0,0,0-.234-1.2v-.005ZM25.684-8.244c.491,0,1.633.2,1.633,2.063a11.814,11.814,0,0,1-.38,2.666c-.379,1.576-1.23,1.907-1.878,1.907-.5,0-1.652-.2-1.652-2.033a11.432,11.432,0,0,1,.4-2.664C24.2-7.908,25.046-8.244,25.684-8.244Zm-.625,5.635c.173,0,.631,0,.905-1.14a10.851,10.851,0,0,0,.352-2.432c0-1.062-.412-1.062-.633-1.062-.152,0-.615,0-.906,1.178a10.648,10.648,0,0,0-.371,2.424C24.406-2.609,24.815-2.609,25.059-2.609ZM6.3-8.156c.473,0,1.575.191,1.575,1.955A10.465,10.465,0,0,1,7.609-4.27a5.337,5.337,0,0,1-.675,1.91,1.563,1.563,0,0,1-1.326.7,1.416,1.416,0,0,1-1.145-.518,1.815,1.815,0,0,1-.379-1.173,22.305,22.305,0,0,1,.433-3.06l.009-.04C4.907-7.86,5.7-8.156,6.3-8.156Zm-.69,5.5a.566.566,0,0,0,.507-.275A4.38,4.38,0,0,0,6.63-4.471,9.766,9.766,0,0,0,6.873-6.2c0-.955-.36-.955-.575-.955-.148,0-.54,0-.8.949a20.667,20.667,0,0,0-.412,2.858.838.838,0,0,0,.157.545A.414.414,0,0,0,5.608-2.658Z" transform="translate(4068 1011.302)" fill="rgba(0,0,0,0)"/></g></svg>