<svg xmlns="http://www.w3.org/2000/svg" width="41.25" height="76.875" viewBox="0 0 41.25 76.875"><path d="M40.313,17.188V5.938A5.944,5.944,0,0,0,34.375,0H6.875A5.944,5.944,0,0,0,.938,5.938v10A.938.938,0,0,0,0,16.875V23.75a.938.938,0,0,0,.938.938v1.25A.938.938,0,0,0,0,26.875V33.75a.938.938,0,0,0,.938.938v36.25a5.944,5.944,0,0,0,5.938,5.938h27.5a5.944,5.944,0,0,0,5.938-5.937v-47.5a.938.938,0,0,0,.938-.937V18.125a.938.938,0,0,0-.937-.937M17.5,1.563h6.25a.625.625,0,0,1,0,1.25H17.5a.625.625,0,0,1,0-1.25M38.438,70.938A4.067,4.067,0,0,1,34.375,75H6.875a4.067,4.067,0,0,1-4.062-4.062v-65A4.067,4.067,0,0,1,6.875,1.875h4.74a1.851,1.851,0,0,1,.26.938A1.876,1.876,0,0,0,13.75,4.688H27.5a1.876,1.876,0,0,0,1.875-1.875,1.851,1.851,0,0,1,.26-.937h4.74a4.067,4.067,0,0,1,4.063,4.063Z"/></svg>