<svg xmlns="http://www.w3.org/2000/svg" width="181" height="64.774" viewBox="0 0 181 64.774"><g transform="translate(1248 -125.271)"><path d="M27.11,24.54q-8.007.61-8.012,5.118,0,2.474,2.594,2.475a4.99,4.99,0,0,0,3.319-1.481q1.655-1.491,2.1-6.113h0Zm19.426,10.1L38.684,0,4.045,7.852l1.26,5.56L0,14.614,7.854,49.255,42.493,41.4l-1.26-5.56,5.3-1.2Zm-8.563-4.393a39.911,39.911,0,0,0-.795,5.675,13.113,13.113,0,0,0,.3,2.594h-11.5c-.06-.567-.09-1.023-.09-1.372,0-.984.07-2.147.2-3.489a10.82,10.82,0,0,1-9.661,5.527,9.55,9.55,0,0,1-6.788-2.415,7.923,7.923,0,0,1-2.594-6.053,9.251,9.251,0,0,1,1.4-4.97A9.912,9.912,0,0,1,12.4,22.154a17.112,17.112,0,0,1,5.248-1.769c1.779-.279,5.278-.666,10.477-1.144a5.74,5.74,0,0,0,.347-1.69c0-1.61-1.123-2.426-3.37-2.426a5.138,5.138,0,0,0-4.9,3.3l-9.571-1.958Q14.266,8.283,26.64,8.288q6.263,0,9.84,2.167a7.034,7.034,0,0,1,3.588,6.392q0,1.894-2.1,13.4Z" transform="translate(-1248 125.271)" fill="#fff"/><g transform="translate(-1193.445 141.391)"><path d="M383.877,159.908l-.417,2.353c1.311-2.085,2.295-2.741,4.142-2.741,3.069,0,5.036,2.443,5.036,6.285a11.208,11.208,0,0,1-2,6.435,5.835,5.835,0,0,1-4.946,2.681,3.8,3.8,0,0,1-3.664-2.055l-1.073,6.406h-5.57l3.247-19.365h5.243Zm-1.192,9.682c0,1.1.6,1.788,1.52,1.788,1.043,0,1.639-.744,2.085-2.532a17.852,17.852,0,0,0,.536-3.486c0-1.4-.536-2.145-1.58-2.145-.953,0-1.461.507-1.937,2a38.52,38.52,0,0,0-.626,4.379Z" transform="translate(-375.39 -152.457)" fill="#fff"/><path d="M502.829,159.566l-.6,3.516c1.192-2.83,2.532-3.962,4.677-3.962.15,0,.388.031.686.06l-.655,5.243c-.536-.031-.775-.031-1.073-.031-2.324,0-3.337,1.042-3.813,3.873l-1.013,5.989H495.47l2.474-14.688Z" transform="translate(-478.019 -152.115)" fill="#fff"/><path d="M579.423,168.509a5.985,5.985,0,0,0-.09.894,1.991,1.991,0,0,0,2.2,2.026,2.52,2.52,0,0,0,2.5-1.847l4.945.8a6.858,6.858,0,0,1-2.474,3.039,8.523,8.523,0,0,1-5.393,1.788c-4.438,0-7.359-2.771-7.359-6.971a8.407,8.407,0,0,1,8.67-8.521c4.438,0,7.269,2.771,7.269,7.121a7.8,7.8,0,0,1-.179,1.668h-10.1Zm4.8-2.83a3.852,3.852,0,0,0,.09-.715,1.825,1.825,0,0,0-1.847-1.937c-1.341,0-2.324,1.013-2.622,2.652Z" transform="translate(-544.931 -152.628)" fill="#fff"/><path d="M692.048,159.566l-.417,2.383a3.877,3.877,0,0,1,1.459-1.847,6.055,6.055,0,0,1,3.367-.982c2.5,0,4.171,1.43,4.171,3.6a9.23,9.23,0,0,1-.15,1.49l-1.668,10.041h-5.57l1.459-8.819a6.524,6.524,0,0,0,.15-1.163c0-.775-.448-1.192-1.311-1.192-1.162,0-1.878.775-2.145,2.354l-1.49,8.819H684.45l2.472-14.688h5.124Z" transform="translate(-639.535 -152.115)" fill="#fff"/><path d="M806.345,133.058a3.417,3.417,0,0,1-.06-.715c0-.417.031-1.1.089-1.7a5.349,5.349,0,0,1-4.826,2.741c-2.741,0-4.678-1.757-4.678-4.231,0-2.2,1.311-3.873,3.694-4.707,1.311-.477,2.115-.6,5.868-.924l.984-.09a3.2,3.2,0,0,0,.179-.834c0-.744-.655-1.192-1.7-1.192a2.528,2.528,0,0,0-2.443,1.609l-4.8-.953a5.683,5.683,0,0,1,2.145-2.622,10.1,10.1,0,0,1,5.81-1.459c4.2,0,6.764,1.549,6.764,4.081,0,.715-.448,3.635-1.282,8.133a11.713,11.713,0,0,0-.148,1.728,6.4,6.4,0,0,0,.119,1.132h-5.72Zm-2.264-6.316a2.083,2.083,0,0,0-1.192,1.907,1.173,1.173,0,0,0,1.28,1.221,2.624,2.624,0,0,0,2.235-1.52,7.477,7.477,0,0,0,.477-2.264,6.228,6.228,0,0,0-2.8.655Zm7.181-15.821,1.013,2.741-6.942,2.5-.775-1.878,6.7-3.367Z" transform="translate(-735.617 -110.92)" fill="#fff"/><path d="M898.114,143.214c-.358,2.145-.715,3.039-1.459,3.873-1.222,1.341-2.92,1.907-5.631,1.907a11.788,11.788,0,0,1-2.324-.238l.417-4.023a4.8,4.8,0,0,0,1.042.119c1.58,0,2.056-.417,2.264-1.907.06-.388.119-.775.209-1.192l2.115-12.692H900.5Zm2.591-15.463h-5.751l.715-4.321h5.749l-.715,4.321Z" transform="translate(-814.101 -121.612)" fill="#fff"/><path d="M985.841,166.693a8.372,8.372,0,0,1-8.67,8.521,7.271,7.271,0,0,1-5.274-1.966,6.07,6.07,0,0,1-1.966-4.857,8.294,8.294,0,0,1,8.551-8.67c4.469,0,7.359,2.741,7.359,6.971Zm-9.474-1.52a17.183,17.183,0,0,0-.686,4.171c0,1.459.626,2.295,1.728,2.295.982,0,1.549-.565,2-2a15.747,15.747,0,0,0,.625-4.081c0-1.49-.625-2.324-1.7-2.324-.923,0-1.549.6-1.966,1.937Z" transform="translate(-883.526 -152.628)" fill="#fff"/><path d="M1087.69,159.558l-.388,2.264a6.394,6.394,0,0,1,1.282-1.58,5.184,5.184,0,0,1,3.248-1.132,3.608,3.608,0,0,1,3.723,2.712,4.6,4.6,0,0,1,4.379-2.622c2.593,0,4.29,1.58,4.29,3.963a8.789,8.789,0,0,1-.119,1.52l-1.609,9.564h-5.572l1.461-8.7a7.026,7.026,0,0,0,.089-1.042,1.124,1.124,0,0,0-1.192-1.282,1.626,1.626,0,0,0-1.4.834,4.632,4.632,0,0,0-.507,1.757l-1.4,8.432h-5.422l1.459-8.7c.06-.477.119-.894.119-1.163a1.152,1.152,0,0,0-1.163-1.251,1.863,1.863,0,0,0-1.371.684,4.12,4.12,0,0,0-.536,1.728l-1.459,8.7h-5.393l2.472-14.688h5.005Z" transform="translate(-977.779 -152.107)" fill="#fff"/></g><path d="M3.6,3.33H1.338V-9.863H3.467v1.719a3.255,3.255,0,0,1,3.018-1.924A3.025,3.025,0,0,1,9.1-8.643,6.31,6.31,0,0,1,10.078-5a6.958,6.958,0,0,1-.933,3.652A3.038,3.038,0,0,1,6.367.205,2.915,2.915,0,0,1,3.6-1.377Zm0-7.373a2.558,2.558,0,0,0,.64,1.782,1.89,1.89,0,0,0,1.421.708,1.644,1.644,0,0,0,1.558-.933,5.04,5.04,0,0,0,.493-2.368,5.227,5.227,0,0,0-.5-2.446,1.593,1.593,0,0,0-1.484-.942,1.874,1.874,0,0,0-1.509.771A3.128,3.128,0,0,0,3.6-5.449ZM14.336,0H12.109V-9.863h2.012V-7.51A4.2,4.2,0,0,1,15.3-9.521a2.379,2.379,0,0,1,1.543-.635q.107,0,.293.01v2.393A2.278,2.278,0,0,0,14.888-6.67a4.619,4.619,0,0,0-.552,2.1ZM25.01-3.145l2.012.273A4.209,4.209,0,0,1,25.5-.664a4.532,4.532,0,0,1-2.842.869,4.244,4.244,0,0,1-3.3-1.377,5.34,5.34,0,0,1-1.25-3.73,5.475,5.475,0,0,1,1.26-3.7,4.275,4.275,0,0,1,3.418-1.465,3.932,3.932,0,0,1,3.262,1.445A5.769,5.769,0,0,1,27.2-4.912l-.01.254H20.42a5.531,5.531,0,0,0,.19,1.611,2.172,2.172,0,0,0,.757,1.055,2.208,2.208,0,0,0,1.416.449A2.192,2.192,0,0,0,25.01-3.145Zm-.137-2.949a2.479,2.479,0,0,0-.64-1.738,2.047,2.047,0,0,0-1.558-.674,2.056,2.056,0,0,0-1.533.63,2.841,2.841,0,0,0-.723,1.782ZM36.719,0H34.57V-8.135H33.105V-9.863H34.57v-.488a3.611,3.611,0,0,1,.7-2.324q.7-.879,2.842-.879.312,0,.791.02v1.748q-.42-.029-.576-.029a2.2,2.2,0,0,0-1.152.22.842.842,0,0,0-.4.518,7.261,7.261,0,0,0-.063,1.216h2.188v1.729H36.719Zm6.045-11.016H40.537V-13.33h2.227ZM42.764,0H40.537V-9.863h2.227Zm4.9,0H45.439V-9.863h2.012V-7.51a4.2,4.2,0,0,1,1.182-2.012,2.379,2.379,0,0,1,1.543-.635q.107,0,.293.01v2.393A2.278,2.278,0,0,0,48.218-6.67a4.619,4.619,0,0,0-.552,2.1ZM66.8,0H64.463V-6.143q0-1.914-1.7-1.914a1.934,1.934,0,0,0-1.577.723A3.353,3.353,0,0,0,60.6-5.176V0H58.232V-6.143q0-1.943-1.592-1.943a2.047,2.047,0,0,0-1.626.781,3.2,3.2,0,0,0-.659,2.129V0H52.061V-9.863h2.158v2.1a3.462,3.462,0,0,1,3.291-2.3,2.766,2.766,0,0,1,2.832,2.3,3.637,3.637,0,0,1,3.291-2.3,3.065,3.065,0,0,1,2.295.889A3.032,3.032,0,0,1,66.8-6.973ZM76.836-9.863,73,1.367a3.847,3.847,0,0,1-.962,1.606,2.426,2.426,0,0,1-1.724.571q-.439,0-1.279-.068V1.709l1.064.02a1.872,1.872,0,0,0,1.04-.229A1.533,1.533,0,0,0,71.67.684a4.081,4.081,0,0,0,.2-.684,4.514,4.514,0,0,0-.205-.605L68.271-9.863h2.334L73-3.359l2.061-6.5Z" transform="translate(-1156 186)" fill="#40bfef"/><path d="M70.313,4.045c-.309,0-.741-.023-1.32-.07l-.459-.037V1.2l1.569.029a1.381,1.381,0,0,0,.754-.143A1.1,1.1,0,0,0,71.2.525c.1-.288.139-.435.158-.507-.022-.068-.068-.2-.161-.448l-3.636-9.933h3.4L72.963-4.9l1.73-5.46h2.843L73.471,1.529a4.352,4.352,0,0,1-1.093,1.81A2.915,2.915,0,0,1,70.313,4.045Zm-.779-1.032c.324.022.586.032.779.032a1.963,1.963,0,0,0,1.382-.436,3.378,3.378,0,0,0,.83-1.4l3.612-10.57h-.712L73.033-1.815,70.257-9.363h-1.27L72.13-.777A2.348,2.348,0,0,1,72.365,0a2.914,2.914,0,0,1-.221.842,2.016,2.016,0,0,1-.725,1.071,2.314,2.314,0,0,1-1.322.316h-.009l-.555-.01ZM4.1,3.83H.838V-10.363H3.967v.735a3.59,3.59,0,0,1,2.518-.94,3.512,3.512,0,0,1,3.03,1.643A6.824,6.824,0,0,1,10.578-5a7.481,7.481,0,0,1-1,3.91A3.522,3.522,0,0,1,6.367.705,3.575,3.575,0,0,1,4.1,0Zm-2.266-1H3.1V-1.377l.939-.239A2.429,2.429,0,0,0,6.367-.295a2.547,2.547,0,0,0,2.35-1.31A6.5,6.5,0,0,0,9.578-5a5.855,5.855,0,0,0-.889-3.36,2.532,2.532,0,0,0-2.2-1.208A2.767,2.767,0,0,0,3.908-7.909l-.941-.235V-9.363H1.838ZM22.656.705A4.743,4.743,0,0,1,18.985-.836,5.844,5.844,0,0,1,17.605-4.9,5.984,5.984,0,0,1,18.986-8.93a4.772,4.772,0,0,1,3.8-1.639,4.425,4.425,0,0,1,3.653,1.634A6.279,6.279,0,0,1,27.7-4.912v.019l-.028.735H20.934a4.084,4.084,0,0,0,.153.961,1.67,1.67,0,0,0,.591.813,1.71,1.71,0,0,0,1.105.341,1.7,1.7,0,0,0,1.756-1.271l.137-.381,2.988.406-.163.557A4.718,4.718,0,0,1,25.8-.267,5.038,5.038,0,0,1,22.656.705Zm.127-10.273a3.766,3.766,0,0,0-3.039,1.291A4.949,4.949,0,0,0,18.605-4.9a4.884,4.884,0,0,0,1.12,3.394A3.734,3.734,0,0,0,22.656-.295a4.066,4.066,0,0,0,2.537-.766,3.718,3.718,0,0,0,1.142-1.4L25.322-2.6a2.645,2.645,0,0,1-2.538,1.555A2.7,2.7,0,0,1,21.056-1.6a2.672,2.672,0,0,1-.923-1.3,5.951,5.951,0,0,1-.213-1.761v-.5h6.774a5.189,5.189,0,0,0-1.04-3.153A3.429,3.429,0,0,0,22.783-9.568ZM67.3.5H63.963V-6.143c0-1.243-.576-1.414-1.2-1.414a1.445,1.445,0,0,0-1.19.539A2.906,2.906,0,0,0,61.1-5.176V.5H57.732V-6.143c0-1.268-.525-1.443-1.092-1.443a1.557,1.557,0,0,0-1.244.6,2.734,2.734,0,0,0-.541,1.806V.5H51.561V-10.363h3.158v.942a3.708,3.708,0,0,1,2.791-1.147,3.119,3.119,0,0,1,2.927,1.7,3.822,3.822,0,0,1,3.2-1.7,3.56,3.56,0,0,1,2.652,1.039A3.529,3.529,0,0,1,67.3-6.973Zm-2.334-1H66.3V-6.973A2.528,2.528,0,0,0,65.57-8.83a2.564,2.564,0,0,0-1.937-.738,3.034,3.034,0,0,0-2.7,1.767,2.422,2.422,0,0,1,1.832-.756c.821,0,2.2.314,2.2,2.414Zm-6.23,0H60.1V-5.176a5.4,5.4,0,0,1,.144-1.3l-.034.065-.345-1.215A2.272,2.272,0,0,0,57.51-9.568,2.9,2.9,0,0,0,54.8-7.807a2.5,2.5,0,0,1,1.844-.779c.781,0,2.092.317,2.092,2.443Zm-6.172,0h1.295V-5.176a3.728,3.728,0,0,1,.733-2.4l-.87-.19v-1.6H52.561ZM48.166.5H44.939V-10.363h3.012v.817A3.19,3.19,0,0,1,48.31-9.9a2.873,2.873,0,0,1,1.866-.753c.081,0,.185,0,.319.01l.474.025v3.367h-.5c-.937,0-1.528.265-1.805.811a4.148,4.148,0,0,0-.5,1.873Zm-2.227-1h1.227V-4.57A5.132,5.132,0,0,1,47.772-6.9a2.547,2.547,0,0,1,2.2-1.334V-9.642a2.022,2.022,0,0,0-1.013.5,3.748,3.748,0,0,0-1.027,1.779l-.977-.149V-9.363H45.939ZM43.264.5H40.037V-10.363h3.227Zm-2.227-1h1.227V-9.363H41.037ZM37.219.5H34.07V-7.635H32.605v-2.729H34.07a4.1,4.1,0,0,1,.813-2.625c.574-.718,1.631-1.067,3.232-1.067.214,0,.487.007.811.02l.48.02v2.764l-.535-.037c-.333-.023-.478-.028-.541-.028a1.729,1.729,0,0,0-.876.137.406.406,0,0,0-.182.2,3.862,3.862,0,0,0-.046.612h2.181v2.729H37.219ZM35.07-.5h1.148V-8.635h2.188v-.729H36.219v-.5a6.73,6.73,0,0,1,.074-1.32,1.325,1.325,0,0,1,.609-.83,2.579,2.579,0,0,1,1.428-.3h.076v-.736c-.107,0-.2,0-.291,0a3.2,3.2,0,0,0-2.451.691,3.146,3.146,0,0,0-.594,2.012v.988H33.605v.729H35.07ZM14.836.5H11.609V-10.363h3.012v.817A3.19,3.19,0,0,1,14.98-9.9a2.873,2.873,0,0,1,1.865-.753c.081,0,.185,0,.319.01l.474.025v3.367h-.5c-.937,0-1.528.265-1.805.811a4.148,4.148,0,0,0-.5,1.873Zm-2.227-1h1.227V-4.57A5.133,5.133,0,0,1,14.442-6.9a2.547,2.547,0,0,1,2.2-1.334V-9.642a2.022,2.022,0,0,0-1.013.5A3.748,3.748,0,0,0,14.6-7.361l-.977-.149V-9.363H12.609ZM5.664-1.053a2.376,2.376,0,0,1-1.792-.873A3.054,3.054,0,0,1,3.1-4.043V-5.449a3.626,3.626,0,0,1,.73-2.335,2.36,2.36,0,0,1,1.9-.958A2.093,2.093,0,0,1,7.659-7.533a5.735,5.735,0,0,1,.556,2.68,5.549,5.549,0,0,1-.551,2.6A2.144,2.144,0,0,1,5.664-1.053Zm.068-6.689a1.387,1.387,0,0,0-1.119.585A2.661,2.661,0,0,0,4.1-5.449v1.406A2.058,2.058,0,0,0,4.614-2.6a1.4,1.4,0,0,0,1.05.543A1.141,1.141,0,0,0,6.78-2.719a4.579,4.579,0,0,0,.435-2.134,4.77,4.77,0,0,0-.44-2.213A1.093,1.093,0,0,0,5.732-7.742ZM25.378-5.594H19.871l.051-.546a3.335,3.335,0,0,1,.863-2.085,2.548,2.548,0,0,1,1.891-.781,2.538,2.538,0,0,1,1.923.832A2.974,2.974,0,0,1,25.373-6.1Zm-4.368-1h3.313a1.812,1.812,0,0,0-.454-.9,1.553,1.553,0,0,0-1.192-.515,1.562,1.562,0,0,0-1.176.479A2.023,2.023,0,0,0,21.01-6.594Zm22.254-3.922H40.037V-13.83h3.227Zm-2.227-1h1.227V-12.83H41.037Z" transform="translate(-1156 186)" fill="rgba(0,0,0,0)"/></g></svg>