<svg xmlns="http://www.w3.org/2000/svg" width="242" height="65.855" viewBox="0 0 242 65.855"><g transform="translate(78.147 4.574)"><path d="M412.486,24.146l-.565,3.233a5.253,5.253,0,0,1,1.98-2.507,8.2,8.2,0,0,1,4.566-1.333c3.395,0,5.658,1.939,5.658,4.891a12.754,12.754,0,0,1-.2,2.021l-2.264,13.619H414.1l1.98-11.964a8.878,8.878,0,0,0,.2-1.576c0-1.051-.606-1.617-1.778-1.617-1.576,0-2.545,1.051-2.911,3.192l-2.021,11.964h-7.4l3.354-19.924h6.95Z" transform="translate(-402.18 -23.54)" fill="#41c0f0"/><path d="M530.507,36.093a7.969,7.969,0,0,0-.12,1.212,2.7,2.7,0,0,0,2.99,2.748c1.617,0,2.627-.727,3.395-2.507l6.709,1.092a9.313,9.313,0,0,1-3.354,4.123,11.551,11.551,0,0,1-7.316,2.425c-6.022,0-9.982-3.758-9.982-9.457A11.4,11.4,0,0,1,534.591,24.17c6.022,0,9.861,3.758,9.861,9.659a10.512,10.512,0,0,1-.243,2.264h-13.7Zm6.507-3.84a5.127,5.127,0,0,0,.12-.97,2.476,2.476,0,0,0-2.507-2.627c-1.819,0-3.152,1.374-3.556,3.6Z" transform="translate(-499.387 -24.048)" fill="#41c0f0"/><path d="M662.9,33.627A11.357,11.357,0,0,1,651.14,45.186a9.854,9.854,0,0,1-7.152-2.668,8.231,8.231,0,0,1-2.668-6.587c0-6.871,4.85-11.761,11.6-11.761,6.063,0,9.982,3.717,9.982,9.457ZM650.05,31.565a23.265,23.265,0,0,0-.929,5.658c0,1.98.849,3.113,2.343,3.113,1.333,0,2.1-.768,2.709-2.709a21.337,21.337,0,0,0,.849-5.538c0-2.021-.849-3.152-2.3-3.152-1.253,0-2.1.808-2.668,2.627Z" transform="translate(-594.853 -24.048)" fill="#41c0f0"/></g><path d="M36.246,32.811q-10.705.816-10.712,6.844,0,3.308,3.468,3.309a6.671,6.671,0,0,0,4.438-1.98q2.212-1.994,2.8-8.173h0Zm25.973,13.5L51.721,0,5.408,10.5l1.685,7.434L0,19.54,10.5,65.855l46.313-10.5L55.129,47.92l7.092-1.607ZM50.771,40.439a53.362,53.362,0,0,0-1.063,7.588,17.533,17.533,0,0,0,.4,3.468H34.73c-.08-.758-.12-1.368-.12-1.834,0-1.315.093-2.87.266-4.665q-4.625,7.394-12.918,7.39a12.769,12.769,0,0,1-9.076-3.229,10.594,10.594,0,0,1-3.468-8.093,12.369,12.369,0,0,1,1.873-6.645,13.252,13.252,0,0,1,5.289-4.8,22.88,22.88,0,0,1,7.016-2.365c2.378-.373,7.057-.89,14.008-1.529a7.675,7.675,0,0,0,.464-2.26c0-2.153-1.5-3.243-4.506-3.243s-5.143,1.475-6.552,4.413l-12.8-2.617q4.864-10.944,21.409-10.938,8.374,0,13.157,2.9a9.4,9.4,0,0,1,4.8,8.546q0,2.533-2.8,17.915Z" fill="#fff"/><g transform="translate(72.941 21.553)"><path d="M386.738,160.039l-.558,3.146c1.753-2.788,3.068-3.665,5.538-3.665,4.1,0,6.733,3.266,6.733,8.4a14.985,14.985,0,0,1-2.668,8.6,7.8,7.8,0,0,1-6.612,3.585,5.078,5.078,0,0,1-4.9-2.747l-1.434,8.565H375.39l4.341-25.891h7.011Zm-1.593,12.945c0,1.473.8,2.39,2.032,2.39,1.4,0,2.192-.995,2.788-3.385a23.868,23.868,0,0,0,.717-4.661c0-1.871-.717-2.868-2.112-2.868-1.275,0-1.953.678-2.59,2.67a51.5,51.5,0,0,0-.837,5.854Z" transform="translate(-375.39 -150.077)" fill="#fff"/><path d="M505.31,159.717l-.8,4.7c1.593-3.783,3.385-5.3,6.253-5.3.2,0,.519.041.917.08l-.876,7.011c-.717-.041-1.036-.041-1.434-.041-3.107,0-4.461,1.393-5.1,5.178l-1.354,8.007h-7.45l3.307-19.639Z" transform="translate(-472.138 -149.754)" fill="#fff"/><path d="M581.332,171.472a8,8,0,0,0-.12,1.195,2.662,2.662,0,0,0,2.948,2.709c1.593,0,2.59-.717,3.346-2.47l6.612,1.075a9.169,9.169,0,0,1-3.307,4.063,11.4,11.4,0,0,1-7.211,2.39c-5.934,0-9.84-3.705-9.84-9.321a11.24,11.24,0,0,1,11.592-11.392c5.934,0,9.719,3.705,9.719,9.521a10.429,10.429,0,0,1-.239,2.231h-13.5Zm6.412-3.783a5.153,5.153,0,0,0,.12-.956,2.44,2.44,0,0,0-2.47-2.59c-1.793,0-3.107,1.354-3.505,3.546Z" transform="translate(-535.215 -150.238)" fill="#fff"/><path d="M694.608,159.717l-.558,3.187a5.183,5.183,0,0,1,1.951-2.47,8.1,8.1,0,0,1,4.5-1.314c3.346,0,5.577,1.912,5.577,4.819a12.355,12.355,0,0,1-.2,1.992l-2.231,13.425H696.2l1.951-11.791a8.721,8.721,0,0,0,.2-1.554c0-1.036-.6-1.593-1.753-1.593-1.554,0-2.51,1.036-2.868,3.148l-1.992,11.791h-7.29l3.305-19.639h6.851Z" transform="translate(-624.397 -149.754)" fill="#fff"/><path d="M809.539,140.519a4.569,4.569,0,0,1-.08-.956c0-.558.041-1.473.119-2.271-1.753,2.59-3.665,3.665-6.453,3.665-3.665,0-6.255-2.349-6.255-5.656,0-2.948,1.753-5.178,4.939-6.294,1.753-.637,2.827-.8,7.846-1.236l1.315-.12a4.283,4.283,0,0,0,.239-1.115c0-.995-.876-1.593-2.27-1.593a3.38,3.38,0,0,0-3.266,2.151l-6.412-1.275a7.6,7.6,0,0,1,2.868-3.505,13.5,13.5,0,0,1,7.768-1.951c5.617,0,9.043,2.071,9.043,5.456,0,.956-.6,4.86-1.714,10.873a15.655,15.655,0,0,0-.2,2.31,8.554,8.554,0,0,0,.159,1.514h-7.648Zm-3.027-8.445a2.786,2.786,0,0,0-1.593,2.549,1.568,1.568,0,0,0,1.712,1.632,3.508,3.508,0,0,0,2.988-2.032,9.995,9.995,0,0,0,.637-3.027c-2.31.239-2.868.4-3.744.876Zm9.6-21.152,1.354,3.665-9.282,3.346-1.036-2.51,8.963-4.5Z" transform="translate(-714.973 -110.92)" fill="#fff"/><path d="M901.287,149.881c-.478,2.868-.956,4.063-1.951,5.178-1.634,1.793-3.9,2.549-7.529,2.549a15.762,15.762,0,0,1-3.107-.319l.558-5.378a6.418,6.418,0,0,0,1.393.159c2.112,0,2.749-.558,3.027-2.549.08-.519.159-1.036.28-1.593l2.827-16.969h7.689Zm3.465-20.674h-7.689l.956-5.777h7.687l-.956,5.777Z" transform="translate(-788.96 -120.999)" fill="#fff"/><path d="M991.2,169.043a11.193,11.193,0,0,1-11.592,11.392,9.722,9.722,0,0,1-7.051-2.629,8.116,8.116,0,0,1-2.629-6.494c0-6.772,4.78-11.592,11.433-11.592,5.975,0,9.84,3.665,9.84,9.321Zm-12.667-2.032a22.974,22.974,0,0,0-.917,5.577c0,1.951.837,3.068,2.31,3.068,1.313,0,2.071-.756,2.67-2.67a21.057,21.057,0,0,0,.836-5.456c0-1.992-.836-3.107-2.271-3.107-1.234,0-2.071.8-2.629,2.59Z" transform="translate(-854.406 -150.238)" fill="#fff"/><path d="M1090.211,159.708l-.519,3.027a8.55,8.55,0,0,1,1.714-2.112,6.931,6.931,0,0,1,4.343-1.514,4.824,4.824,0,0,1,4.978,3.626,6.152,6.152,0,0,1,5.854-3.505c3.466,0,5.736,2.112,5.736,5.3a11.747,11.747,0,0,1-.159,2.032l-2.151,12.787h-7.45l1.953-11.631a9.385,9.385,0,0,0,.119-1.393,1.5,1.5,0,0,0-1.593-1.714,2.175,2.175,0,0,0-1.871,1.115,6.194,6.194,0,0,0-.678,2.349l-1.871,11.274h-7.25l1.951-11.631c.08-.637.16-1.2.16-1.554a1.541,1.541,0,0,0-1.554-1.673,2.49,2.49,0,0,0-1.832.915,5.51,5.51,0,0,0-.717,2.31l-1.951,11.631h-7.211l3.305-19.639h6.692Z" transform="translate(-943.258 -149.746)" fill="#fff"/></g></svg>