<svg xmlns="http://www.w3.org/2000/svg" width="181" height="64.847" viewBox="0 0 181 64.847"><g transform="translate(1248 -53.198)"><g transform="translate(-1248 53.198)"><g transform="translate(54.354 3.424)"><g transform="translate(4.15)"><path d="M409.9,23.994l-.423,2.421a3.932,3.932,0,0,1,1.482-1.877,6.138,6.138,0,0,1,3.418-1c2.541,0,4.236,1.452,4.236,3.661a9.543,9.543,0,0,1-.151,1.513l-1.695,10.2h-5.657l1.482-8.956a6.644,6.644,0,0,0,.151-1.18c0-.787-.454-1.21-1.331-1.21-1.18,0-1.906.787-2.179,2.39l-1.513,8.956H402.18l2.511-14.916h5.2Z" transform="translate(-402.18 -23.54)" fill="#40bfef"/><path d="M528.577,33.1a5.965,5.965,0,0,0-.09.908,2.021,2.021,0,0,0,2.239,2.057,2.559,2.559,0,0,0,2.541-1.877L538.29,35a6.972,6.972,0,0,1-2.511,3.087A8.647,8.647,0,0,1,530.3,39.9c-4.508,0-7.473-2.813-7.473-7.08a8.538,8.538,0,0,1,8.805-8.654c4.508,0,7.382,2.813,7.382,7.231a7.875,7.875,0,0,1-.182,1.695H528.579Zm4.872-2.874a3.837,3.837,0,0,0,.09-.726,1.853,1.853,0,0,0-1.877-1.967c-1.361,0-2.359,1.028-2.662,2.693Z" transform="translate(-505.28 -24.078)" fill="#40bfef"/><path d="M657.477,31.25a8.5,8.5,0,0,1-8.805,8.654,7.377,7.377,0,0,1-5.355-2,6.162,6.162,0,0,1-2-4.931A8.422,8.422,0,0,1,650,24.17c4.539,0,7.473,2.783,7.473,7.08Zm-9.621-1.543a17.416,17.416,0,0,0-.7,4.236c0,1.482.636,2.33,1.754,2.33,1,0,1.574-.575,2.028-2.028a15.973,15.973,0,0,0,.636-4.146c0-1.513-.636-2.359-1.725-2.359C648.915,27.74,648.279,28.345,647.856,29.706Z" transform="translate(-606.533 -24.078)" fill="#40bfef"/></g><g transform="translate(0 12.648)"><path d="M382.273,160.173l-.423,2.39c1.331-2.118,2.33-2.783,4.206-2.783,3.116,0,5.113,2.48,5.113,6.385a11.374,11.374,0,0,1-2.028,6.536,5.924,5.924,0,0,1-5.023,2.723,3.857,3.857,0,0,1-3.721-2.087l-1.09,6.505H373.65l3.3-19.667h5.326Zm-1.21,9.834c0,1.12.605,1.815,1.543,1.815,1.059,0,1.664-.756,2.118-2.572a18.057,18.057,0,0,0,.544-3.539c0-1.423-.544-2.179-1.6-2.179-.969,0-1.482.515-1.967,2.028a38.968,38.968,0,0,0-.636,4.448Z" transform="translate(-373.65 -152.61)" fill="#fff"/><path d="M501.133,159.814l-.605,3.57c1.21-2.874,2.572-4.024,4.751-4.024.151,0,.393.031.7.061l-.666,5.326c-.544-.031-.787-.031-1.09-.031-2.359,0-3.388,1.059-3.872,3.933l-1.029,6.082H493.66l2.511-14.916h4.962Z" transform="translate(-476.203 -152.251)" fill="#fff"/><path d="M588.227,167.06a8.5,8.5,0,0,1-8.8,8.654,7.378,7.378,0,0,1-5.355-2,6.162,6.162,0,0,1-2-4.931,8.423,8.423,0,0,1,8.683-8.805c4.539,0,7.473,2.783,7.473,7.08Zm-9.621-1.543a17.419,17.419,0,0,0-.7,4.236c0,1.482.636,2.33,1.754,2.33,1,0,1.574-.575,2.028-2.028a15.968,15.968,0,0,0,.636-4.146c0-1.513-.636-2.359-1.725-2.359C579.665,163.55,579.029,164.155,578.606,165.516Z" transform="translate(-543.207 -152.781)" fill="#fff"/><path d="M690.805,159.814l-.423,2.421a3.933,3.933,0,0,1,1.482-1.877,6.139,6.139,0,0,1,3.419-1c2.541,0,4.236,1.452,4.236,3.661a9.547,9.547,0,0,1-.151,1.513l-1.695,10.2h-5.657l1.482-8.956a6.652,6.652,0,0,0,.151-1.18c0-.787-.454-1.21-1.331-1.21-1.18,0-1.906.787-2.179,2.39l-1.513,8.956H683.09l2.511-14.916h5.2Z" transform="translate(-638.077 -152.251)" fill="#fff"/><path d="M805.653,132.969a3.447,3.447,0,0,1-.061-.726c0-.423.03-1.12.09-1.725a5.435,5.435,0,0,1-4.9,2.784c-2.783,0-4.75-1.785-4.75-4.3,0-2.239,1.331-3.933,3.752-4.78,1.331-.484,2.148-.605,5.96-.938l1-.09a3.28,3.28,0,0,0,.182-.847c0-.756-.666-1.21-1.725-1.21a2.569,2.569,0,0,0-2.482,1.634l-4.872-.969a5.773,5.773,0,0,1,2.179-2.662,10.267,10.267,0,0,1,5.9-1.482c4.266,0,6.867,1.574,6.867,4.146,0,.726-.454,3.692-1.3,8.26a11.859,11.859,0,0,0-.151,1.754,6.447,6.447,0,0,0,.121,1.149H805.65Zm-2.3-6.414a2.115,2.115,0,0,0-1.21,1.936,1.192,1.192,0,0,0,1.3,1.241,2.663,2.663,0,0,0,2.269-1.543,7.629,7.629,0,0,0,.484-2.3A6.316,6.316,0,0,0,803.353,126.555Zm7.292-16.065,1.028,2.784-7.049,2.541-.06-1.906,6.081-3.418Z" transform="translate(-734.588 -110.49)" fill="#fff"/><path d="M897.74,143.25c-.364,2.179-.726,3.087-1.482,3.933-1.241,1.362-2.965,1.936-5.718,1.936a12.056,12.056,0,0,1-2.359-.241l.423-4.085a4.959,4.959,0,0,0,1.059.121c1.6,0,2.088-.423,2.3-1.936.061-.393.121-.787.212-1.21l2.149-12.89h5.839l-2.421,14.372Zm2.631-15.7h-5.839l.726-4.387H901.1Z" transform="translate(-813.333 -121.317)" fill="#fff"/><path d="M975.258,168.906a5.936,5.936,0,0,0-.09.908,2.021,2.021,0,0,0,2.239,2.057,2.559,2.559,0,0,0,2.541-1.877l5.023.818a6.972,6.972,0,0,1-2.511,3.087,8.647,8.647,0,0,1-5.477,1.815c-4.508,0-7.473-2.813-7.473-7.08a8.538,8.538,0,0,1,8.805-8.654c4.508,0,7.382,2.813,7.382,7.231a7.875,7.875,0,0,1-.182,1.695H975.259Zm4.872-2.874a3.847,3.847,0,0,0,.09-.726,1.853,1.853,0,0,0-1.877-1.967c-1.362,0-2.359,1.028-2.662,2.693Z" transform="translate(-882.832 -152.781)" fill="#fff"/><path d="M1084.206,159.822l-.393,2.3a6.474,6.474,0,0,1,1.3-1.6,5.26,5.26,0,0,1,3.3-1.149,3.669,3.669,0,0,1,3.782,2.754,4.672,4.672,0,0,1,4.448-2.662c2.631,0,4.357,1.6,4.357,4.024a8.888,8.888,0,0,1-.121,1.543l-1.634,9.713h-5.657l1.482-8.834a7.062,7.062,0,0,0,.09-1.059,1.141,1.141,0,0,0-1.21-1.3,1.655,1.655,0,0,0-1.423.847,4.7,4.7,0,0,0-.515,1.785l-1.423,8.562h-5.507l1.482-8.834a11.771,11.771,0,0,0,.121-1.18,1.17,1.17,0,0,0-1.18-1.271,1.892,1.892,0,0,0-1.392.7,4.177,4.177,0,0,0-.544,1.754l-1.482,8.834h-5.477l2.511-14.916h5.083Z" transform="translate(-974.353 -152.26)" fill="#fff"/></g></g><path d="M27.135,24.563q-8.014.611-8.02,5.123,0,2.477,2.6,2.477a4.994,4.994,0,0,0,3.322-1.482q1.656-1.492,2.1-6.118h0ZM46.58,34.672,38.72,0,4.048,7.86,5.31,13.425,0,14.628,7.861,49.3l34.672-7.861-1.261-5.566,5.31-1.2Zm-8.571-4.4a39.95,39.95,0,0,0-.8,5.68,13.126,13.126,0,0,0,.3,2.6H26c-.06-.567-.09-1.024-.09-1.373,0-.985.07-2.149.2-3.493a10.831,10.831,0,0,1-9.671,5.532A9.559,9.559,0,0,1,9.644,36.8a7.931,7.931,0,0,1-2.6-6.059,9.26,9.26,0,0,1,1.4-4.975,9.921,9.921,0,0,1,3.96-3.592,17.129,17.129,0,0,1,5.253-1.77c1.781-.279,5.283-.666,10.487-1.145a5.746,5.746,0,0,0,.348-1.692c0-1.612-1.124-2.428-3.373-2.428a5.143,5.143,0,0,0-4.905,3.3l-9.58-1.959Q14.28,8.291,26.665,8.3q6.269,0,9.85,2.169a7.04,7.04,0,0,1,3.592,6.4q0,1.9-2.1,13.412Z" fill="#fff"/></g><path d="M3.6,3.33H1.338V-9.863H3.467v1.719a3.255,3.255,0,0,1,3.018-1.924A3.025,3.025,0,0,1,9.1-8.643,6.31,6.31,0,0,1,10.078-5a6.958,6.958,0,0,1-.933,3.652A3.038,3.038,0,0,1,6.367.205,2.915,2.915,0,0,1,3.6-1.377Zm0-7.373a2.558,2.558,0,0,0,.64,1.782,1.89,1.89,0,0,0,1.421.708,1.644,1.644,0,0,0,1.558-.933,5.04,5.04,0,0,0,.493-2.368,5.227,5.227,0,0,0-.5-2.446,1.593,1.593,0,0,0-1.484-.942,1.874,1.874,0,0,0-1.509.771A3.128,3.128,0,0,0,3.6-5.449ZM14.336,0H12.109V-9.863h2.012V-7.51A4.2,4.2,0,0,1,15.3-9.521a2.379,2.379,0,0,1,1.543-.635q.107,0,.293.01v2.393A2.278,2.278,0,0,0,14.888-6.67a4.619,4.619,0,0,0-.552,2.1ZM22.6.205a3.885,3.885,0,0,1-3.34-1.572,5.938,5.938,0,0,1-1.152-3.6A5.329,5.329,0,0,1,19.38-8.613a4.254,4.254,0,0,1,3.364-1.455A4.186,4.186,0,0,1,26-8.652a5.294,5.294,0,0,1,1.274,3.682,5.289,5.289,0,0,1-1.323,3.755A4.385,4.385,0,0,1,22.6.205Zm.078-1.836q2.246,0,2.246-3.35a4.544,4.544,0,0,0-.537-2.388,1.8,1.8,0,0,0-1.65-.874,1.868,1.868,0,0,0-1.709.9,4.53,4.53,0,0,0-.557,2.4A4.293,4.293,0,0,0,21.06-2.48,1.866,1.866,0,0,0,22.676-1.631ZM36.807,0H34.658V-8.135H33.193V-9.863h1.465v-.488a3.611,3.611,0,0,1,.7-2.324q.7-.879,2.842-.879.312,0,.791.02v1.748q-.42-.029-.576-.029a2.2,2.2,0,0,0-1.152.22.842.842,0,0,0-.4.518,7.261,7.261,0,0,0-.063,1.216h2.188v1.729H36.807Zm6.045-11.016H40.625V-13.33h2.227ZM42.852,0H40.625V-9.863h2.227Zm4.9,0H45.527V-9.863h2.012V-7.51a4.2,4.2,0,0,1,1.182-2.012,2.379,2.379,0,0,1,1.543-.635q.107,0,.293.01v2.393A2.278,2.278,0,0,0,48.306-6.67a4.619,4.619,0,0,0-.552,2.1ZM66.885,0H64.551V-6.143q0-1.914-1.7-1.914a1.934,1.934,0,0,0-1.577.723,3.353,3.353,0,0,0-.591,2.158V0H58.32V-6.143q0-1.943-1.592-1.943A2.047,2.047,0,0,0,55.1-7.3a3.2,3.2,0,0,0-.659,2.129V0H52.148V-9.863h2.158v2.1a3.462,3.462,0,0,1,3.291-2.3,2.766,2.766,0,0,1,2.832,2.3,3.637,3.637,0,0,1,3.291-2.3,3.065,3.065,0,0,1,2.295.889,3.032,3.032,0,0,1,.869,2.207ZM76.924-9.863,73.086,1.367a3.847,3.847,0,0,1-.962,1.606,2.426,2.426,0,0,1-1.724.571q-.439,0-1.279-.068V1.709l1.064.02a1.872,1.872,0,0,0,1.04-.229,1.533,1.533,0,0,0,.532-.815,4.081,4.081,0,0,0,.2-.684,4.514,4.514,0,0,0-.205-.605L68.359-9.863h2.334l2.393,6.5,2.061-6.5Z" transform="translate(-1156 114)" fill="#40bfef"/><path d="M70.4,4.045c-.309,0-.741-.023-1.32-.07l-.459-.037V1.2l1.569.029a1.381,1.381,0,0,0,.754-.143,1.1,1.1,0,0,0,.339-.56c.1-.288.139-.435.158-.507-.022-.068-.068-.2-.161-.448l-3.636-9.933h3.4L73.051-4.9l1.73-5.46h2.843L73.559,1.529a4.352,4.352,0,0,1-1.093,1.81A2.915,2.915,0,0,1,70.4,4.045Zm-.779-1.032c.324.022.586.032.779.032a1.963,1.963,0,0,0,1.382-.436,3.379,3.379,0,0,0,.83-1.4l3.612-10.57h-.712L73.121-1.815,70.345-9.363h-1.27L72.218-.777A2.348,2.348,0,0,1,72.453,0a2.913,2.913,0,0,1-.221.842,2.016,2.016,0,0,1-.725,1.071,2.314,2.314,0,0,1-1.322.316h-.009l-.555-.01ZM4.1,3.83H.838V-10.363H3.967v.735a3.59,3.59,0,0,1,2.518-.94,3.512,3.512,0,0,1,3.03,1.643A6.824,6.824,0,0,1,10.578-5a7.481,7.481,0,0,1-1,3.91A3.522,3.522,0,0,1,6.367.705,3.575,3.575,0,0,1,4.1,0Zm-2.266-1H3.1V-1.377l.939-.239A2.429,2.429,0,0,0,6.367-.295a2.547,2.547,0,0,0,2.35-1.31A6.5,6.5,0,0,0,9.578-5a5.854,5.854,0,0,0-.889-3.36,2.532,2.532,0,0,0-2.2-1.208A2.767,2.767,0,0,0,3.908-7.909l-.941-.235V-9.363H1.838ZM22.6.705a4.376,4.376,0,0,1-3.743-1.777,6.454,6.454,0,0,1-1.249-3.9A5.837,5.837,0,0,1,19-8.943a4.752,4.752,0,0,1,3.74-1.626,4.685,4.685,0,0,1,3.628,1.582,5.8,5.8,0,0,1,1.4,4.016,5.794,5.794,0,0,1-1.457,4.1A4.886,4.886,0,0,1,22.6.705Zm.146-10.273a3.745,3.745,0,0,0-2.988,1.285,4.8,4.8,0,0,0-1.151,3.313,5.474,5.474,0,0,0,1.056,3.308A3.384,3.384,0,0,0,22.6-.295a3.872,3.872,0,0,0,2.989-1.262,4.768,4.768,0,0,0,1.189-3.414,4.772,4.772,0,0,0-1.146-3.347A3.676,3.676,0,0,0,22.744-9.568ZM67.385.5H64.051V-6.143c0-1.243-.576-1.414-1.2-1.414a1.445,1.445,0,0,0-1.19.539,2.906,2.906,0,0,0-.478,1.842V.5H57.82V-6.143c0-1.268-.525-1.443-1.092-1.443a1.557,1.557,0,0,0-1.244.6,2.734,2.734,0,0,0-.541,1.806V.5H51.648V-10.363h3.158v.942A3.708,3.708,0,0,1,57.6-10.568a3.119,3.119,0,0,1,2.927,1.7,3.822,3.822,0,0,1,3.2-1.7,3.56,3.56,0,0,1,2.652,1.039,3.529,3.529,0,0,1,1.012,2.557Zm-2.334-1h1.334V-6.973a2.528,2.528,0,0,0-.727-1.857,2.564,2.564,0,0,0-1.937-.738A3.034,3.034,0,0,0,61.02-7.8a2.422,2.422,0,0,1,1.832-.755c.821,0,2.2.314,2.2,2.414Zm-6.23,0h1.363V-5.176a5.4,5.4,0,0,1,.144-1.3l-.034.065-.345-1.215A2.272,2.272,0,0,0,57.6-9.568a2.9,2.9,0,0,0-2.714,1.761,2.5,2.5,0,0,1,1.844-.779c.781,0,2.092.317,2.092,2.443Zm-6.172,0h1.295V-5.176a3.728,3.728,0,0,1,.733-2.4l-.87-.19v-1.6H52.648ZM48.254.5H45.027V-10.363h3.012v.817A3.19,3.19,0,0,1,48.4-9.9a2.873,2.873,0,0,1,1.865-.753c.081,0,.185,0,.319.01l.474.025v3.367h-.5c-.937,0-1.528.265-1.805.811a4.148,4.148,0,0,0-.5,1.873Zm-2.227-1h1.227V-4.57A5.132,5.132,0,0,1,47.86-6.9a2.547,2.547,0,0,1,2.2-1.334V-9.642a2.022,2.022,0,0,0-1.013.5,3.748,3.748,0,0,0-1.027,1.779l-.977-.149V-9.363H46.027ZM43.352.5H40.125V-10.363h3.227Zm-2.227-1h1.227V-9.363H41.125ZM37.307.5H34.158V-7.635H32.693v-2.729h1.465a4.1,4.1,0,0,1,.813-2.625c.574-.718,1.631-1.067,3.232-1.067.214,0,.487.007.811.02l.48.02v2.764l-.535-.037c-.333-.023-.478-.028-.541-.028a1.729,1.729,0,0,0-.876.137.406.406,0,0,0-.182.2,3.862,3.862,0,0,0-.046.612h2.181v2.729H37.307Zm-2.148-1h1.148V-8.635h2.188v-.729H36.307v-.5a6.73,6.73,0,0,1,.074-1.32,1.325,1.325,0,0,1,.609-.83,2.579,2.579,0,0,1,1.428-.3h.076v-.736c-.107,0-.2,0-.291,0a3.2,3.2,0,0,0-2.451.691,3.146,3.146,0,0,0-.594,2.012v.988H33.693v.729h1.465ZM14.836.5H11.609V-10.363h3.012v.817A3.192,3.192,0,0,1,14.98-9.9a2.873,2.873,0,0,1,1.865-.753c.081,0,.185,0,.319.01l.474.025v3.367h-.5c-.937,0-1.528.265-1.805.811a4.148,4.148,0,0,0-.5,1.873Zm-2.227-1h1.227V-4.57A5.133,5.133,0,0,1,14.442-6.9a2.547,2.547,0,0,1,2.2-1.334V-9.642a2.022,2.022,0,0,0-1.013.5A3.748,3.748,0,0,0,14.6-7.361l-.977-.149V-9.363H12.609ZM5.664-1.053a2.376,2.376,0,0,1-1.792-.873A3.054,3.054,0,0,1,3.1-4.043V-5.449a3.626,3.626,0,0,1,.73-2.335,2.36,2.36,0,0,1,1.9-.958A2.093,2.093,0,0,1,7.659-7.533a5.735,5.735,0,0,1,.556,2.68,5.549,5.549,0,0,1-.551,2.6A2.144,2.144,0,0,1,5.664-1.053Zm.068-6.689a1.387,1.387,0,0,0-1.119.585A2.661,2.661,0,0,0,4.1-5.449v1.406A2.058,2.058,0,0,0,4.614-2.6a1.4,1.4,0,0,0,1.05.543A1.141,1.141,0,0,0,6.78-2.719a4.579,4.579,0,0,0,.435-2.134,4.77,4.77,0,0,0-.44-2.213A1.093,1.093,0,0,0,5.732-7.742ZM22.676-1.131A2.378,2.378,0,0,1,20.649-2.2a4.785,4.785,0,0,1-.68-2.746A5.033,5.033,0,0,1,20.6-7.6a2.376,2.376,0,0,1,2.135-1.141A2.31,2.31,0,0,1,24.811-7.63a5.043,5.043,0,0,1,.611,2.649C25.422-1.8,23.929-1.131,22.676-1.131Zm.059-6.611a1.371,1.371,0,0,0-1.283.666,4.072,4.072,0,0,0-.482,2.135,3.848,3.848,0,0,0,.5,2.175,1.365,1.365,0,0,0,1.206.635c.478,0,1.746,0,1.746-2.85a4.091,4.091,0,0,0-.463-2.126A1.307,1.307,0,0,0,22.734-7.742Zm20.617-2.773H40.125V-13.83h3.227Zm-2.227-1h1.227V-12.83H41.125Z" transform="translate(-1156 114)" fill="rgba(0,0,0,0)"/></g></svg>