<svg xmlns="http://www.w3.org/2000/svg" width="242.305" height="66" viewBox="0 0 242.305 66"><g transform="translate(72.763 4.584)"><g transform="translate(5.556)"><path d="M412.509,24.148l-.567,3.24a5.264,5.264,0,0,1,1.984-2.512A8.218,8.218,0,0,1,418.5,23.54c3.4,0,5.671,1.943,5.671,4.9a12.785,12.785,0,0,1-.2,2.025L421.7,44.116h-7.573l1.984-11.99a8.9,8.9,0,0,0,.2-1.579c0-1.054-.608-1.62-1.782-1.62-1.579,0-2.551,1.054-2.917,3.2l-2.025,11.99H402.18l3.361-19.968h6.966Z" transform="translate(-402.18 -23.54)" fill="#40bfef"/><path d="M530.524,36.119a7.986,7.986,0,0,0-.121,1.215,2.706,2.706,0,0,0,3,2.754c1.62,0,2.633-.728,3.4-2.512l6.724,1.094a9.335,9.335,0,0,1-3.361,4.132,11.576,11.576,0,0,1-7.332,2.43c-6.035,0-10-3.766-10-9.478A11.43,11.43,0,0,1,534.617,24.17c6.035,0,9.883,3.766,9.883,9.68a10.543,10.543,0,0,1-.243,2.269H530.526Zm6.522-3.848a5.148,5.148,0,0,0,.121-.972,2.481,2.481,0,0,0-2.512-2.633c-1.823,0-3.159,1.377-3.564,3.6Z" transform="translate(-499.335 -24.047)" fill="#40bfef"/><path d="M662.949,33.648a11.382,11.382,0,0,1-11.787,11.585,9.876,9.876,0,0,1-7.168-2.674,8.249,8.249,0,0,1-2.674-6.6c0-6.886,4.861-11.787,11.624-11.787,6.076,0,10,3.725,10,9.478Zm-12.88-2.066a23.315,23.315,0,0,0-.931,5.671c0,1.984.851,3.12,2.349,3.12,1.336,0,2.107-.769,2.715-2.715a21.388,21.388,0,0,0,.851-5.55c0-2.025-.851-3.159-2.31-3.159C651.487,28.949,650.636,29.759,650.07,31.582Z" transform="translate(-594.751 -24.047)" fill="#40bfef"/></g><g transform="translate(0 16.932)"><path d="M385.194,160.306l-.567,3.2c1.782-2.835,3.12-3.725,5.63-3.725,4.171,0,6.845,3.32,6.845,8.547a15.226,15.226,0,0,1-2.715,8.75,7.93,7.93,0,0,1-6.724,3.645,5.163,5.163,0,0,1-4.981-2.794l-1.459,8.709H373.65l4.415-26.328h7.129Zm-1.62,13.164c0,1.5.81,2.43,2.066,2.43,1.418,0,2.228-1.013,2.835-3.443a24.172,24.172,0,0,0,.728-4.738c0-1.9-.728-2.917-2.146-2.917-1.3,0-1.984.689-2.633,2.715a52.168,52.168,0,0,0-.851,5.955Z" transform="translate(-373.65 -150.181)" fill="#fff"/><path d="M503.664,159.968l-.81,4.779c1.62-3.848,3.443-5.386,6.36-5.386.2,0,.526.041.931.082l-.892,7.129c-.728-.041-1.053-.041-1.459-.041-3.159,0-4.535,1.418-5.184,5.266l-1.377,8.142H493.66l3.361-19.968h6.642Z" transform="translate(-470.29 -149.843)" fill="#fff"/><path d="M593.7,169.458a11.382,11.382,0,0,1-11.787,11.585,9.876,9.876,0,0,1-7.168-2.674,8.249,8.249,0,0,1-2.674-6.6c0-6.886,4.861-11.787,11.624-11.787,6.076,0,10,3.725,10,9.478Zm-12.88-2.066a23.318,23.318,0,0,0-.931,5.671c0,1.984.851,3.12,2.349,3.12,1.336,0,2.107-.769,2.715-2.715a21.38,21.38,0,0,0,.851-5.55c0-2.025-.851-3.159-2.31-3.159C582.237,164.759,581.386,165.569,580.82,167.392Z" transform="translate(-533.43 -150.343)" fill="#fff"/><path d="M693.419,159.968l-.567,3.24a5.265,5.265,0,0,1,1.984-2.512,8.218,8.218,0,0,1,4.576-1.336c3.4,0,5.671,1.943,5.671,4.9a12.792,12.792,0,0,1-.2,2.025l-2.269,13.649h-7.573l1.984-11.99a8.9,8.9,0,0,0,.2-1.579c0-1.054-.608-1.62-1.782-1.62-1.579,0-2.551,1.054-2.917,3.2l-2.025,11.99H683.09l3.361-19.968h6.966Z" transform="translate(-622.831 -149.843)" fill="#fff"/><path d="M808.912,140.583a4.614,4.614,0,0,1-.082-.972c0-.567.041-1.5.121-2.31-1.782,2.633-3.727,3.727-6.563,3.727-3.725,0-6.358-2.389-6.358-5.753,0-3,1.782-5.266,5.022-6.4,1.782-.648,2.876-.81,7.978-1.256l1.336-.121a4.4,4.4,0,0,0,.243-1.133c0-1.013-.892-1.62-2.31-1.62a3.439,3.439,0,0,0-3.322,2.187l-6.522-1.3a7.727,7.727,0,0,1,2.917-3.564,13.744,13.744,0,0,1,7.9-1.984c5.711,0,9.193,2.107,9.193,5.55,0,.972-.608,4.942-1.741,11.057a15.881,15.881,0,0,0-.2,2.349,8.641,8.641,0,0,0,.162,1.538h-7.776ZM805.833,132a2.832,2.832,0,0,0-1.62,2.592,1.6,1.6,0,0,0,1.741,1.661,3.565,3.565,0,0,0,3.038-2.066,10.211,10.211,0,0,0,.648-3.079C807.292,131.348,806.723,131.51,805.833,132ZM815.6,110.49l1.377,3.727-9.437,3.4-.08-2.551,8.14-4.576Z" transform="translate(-713.777 -110.49)" fill="#fff"/><path d="M900.978,150.055c-.487,2.917-.972,4.132-1.984,5.266-1.661,1.823-3.969,2.592-7.655,2.592a16.14,16.14,0,0,1-3.159-.323l.567-5.468a6.64,6.64,0,0,0,1.417.162c2.146,0,2.795-.567,3.079-2.592.082-.526.162-1.054.284-1.62l2.876-17.256h7.817l-3.241,19.24Zm3.523-21.022h-7.817l.972-5.873h7.817Z" transform="translate(-787.983 -120.693)" fill="#fff"/><path d="M977.2,171.929a7.967,7.967,0,0,0-.121,1.215,2.706,2.706,0,0,0,3,2.754c1.62,0,2.633-.728,3.4-2.512l6.724,1.094a9.333,9.333,0,0,1-3.361,4.132,11.577,11.577,0,0,1-7.332,2.43c-6.035,0-10-3.766-10-9.478A11.43,11.43,0,0,1,981.3,159.98c6.035,0,9.883,3.766,9.883,9.68a10.54,10.54,0,0,1-.243,2.269H977.206Zm6.522-3.848a5.142,5.142,0,0,0,.121-.972,2.481,2.481,0,0,0-2.512-2.633c-1.823,0-3.159,1.377-3.564,3.6Z" transform="translate(-853.474 -150.343)" fill="#fff"/><path d="M1086.779,159.976l-.526,3.079a8.67,8.67,0,0,1,1.741-2.146,7.042,7.042,0,0,1,4.415-1.538,4.911,4.911,0,0,1,5.063,3.686,6.255,6.255,0,0,1,5.955-3.564c3.523,0,5.833,2.146,5.833,5.386a11.918,11.918,0,0,1-.162,2.066l-2.187,13h-7.573l1.984-11.826a9.432,9.432,0,0,0,.121-1.418,1.527,1.527,0,0,0-1.62-1.741,2.216,2.216,0,0,0-1.9,1.133,6.288,6.288,0,0,0-.689,2.389l-1.9,11.462h-7.373l1.984-11.826a15.742,15.742,0,0,0,.162-1.579,1.567,1.567,0,0,0-1.58-1.7,2.533,2.533,0,0,0-1.864.931,5.594,5.594,0,0,0-.728,2.349l-1.984,11.826h-7.332l3.361-19.968h6.8Z" transform="translate(-939.718 -149.851)" fill="#fff"/></g></g><path d="M36.326,32.883Q25.6,33.7,25.59,39.742q0,3.315,3.476,3.316a6.686,6.686,0,0,0,4.448-1.984q2.217-2,2.81-8.191h0Zm26.03,13.532L51.835,0,5.42,10.522l1.688,7.451L0,19.583,10.524,66,56.939,55.476l-1.688-7.451,7.108-1.61ZM50.883,40.529a53.481,53.481,0,0,0-1.065,7.6,17.571,17.571,0,0,0,.4,3.476H34.807c-.08-.759-.121-1.371-.121-1.838,0-1.318.093-2.876.267-4.676Q30.318,52.506,22.007,52.5a12.8,12.8,0,0,1-9.1-3.237,10.617,10.617,0,0,1-3.476-8.111,12.4,12.4,0,0,1,1.877-6.66,13.282,13.282,0,0,1,5.3-4.808,22.93,22.93,0,0,1,7.032-2.37c2.384-.374,7.073-.892,14.039-1.533a7.692,7.692,0,0,0,.465-2.265c0-2.158-1.505-3.25-4.516-3.25s-5.155,1.478-6.567,4.422L14.241,22.068Q19.116,11.1,35.7,11.106q8.392,0,13.186,2.9a9.425,9.425,0,0,1,4.808,8.565q0,2.538-2.81,17.955Z" fill="#fff"/></svg>