<svg xmlns="http://www.w3.org/2000/svg" width="181" height="64.476" viewBox="0 0 181 64.476"><g transform="translate(-5716 -1061.802)"><g transform="translate(0 -88)"><path d="M3.6,3.33H1.338V-9.863H3.467v1.719a3.255,3.255,0,0,1,3.018-1.924A3.025,3.025,0,0,1,9.1-8.643,6.31,6.31,0,0,1,10.078-5a6.958,6.958,0,0,1-.933,3.652A3.038,3.038,0,0,1,6.367.205,2.915,2.915,0,0,1,3.6-1.377Zm0-7.373a2.558,2.558,0,0,0,.64,1.782,1.89,1.89,0,0,0,1.421.708,1.644,1.644,0,0,0,1.558-.933,5.04,5.04,0,0,0,.493-2.368,5.227,5.227,0,0,0-.5-2.446,1.593,1.593,0,0,0-1.484-.942,1.874,1.874,0,0,0-1.509.771A3.128,3.128,0,0,0,3.6-5.449ZM14.336,0H12.109V-9.863h2.012V-7.51A4.2,4.2,0,0,1,15.3-9.521a2.379,2.379,0,0,1,1.543-.635q.107,0,.293.01v2.393A2.278,2.278,0,0,0,14.888-6.67a4.619,4.619,0,0,0-.552,2.1ZM25.01-3.145l2.012.273A4.209,4.209,0,0,1,25.5-.664,4.532,4.532,0,0,1,22.658.2a4.244,4.244,0,0,1-3.3-1.377,5.34,5.34,0,0,1-1.25-3.73,5.475,5.475,0,0,1,1.26-3.7,4.275,4.275,0,0,1,3.418-1.465,3.932,3.932,0,0,1,3.262,1.445A5.769,5.769,0,0,1,27.2-4.912l-.01.254H20.42a5.531,5.531,0,0,0,.19,1.611,2.172,2.172,0,0,0,.757,1.055,2.208,2.208,0,0,0,1.416.449,2.192,2.192,0,0,0,2.227-1.6Zm-.137-2.949a2.479,2.479,0,0,0-.64-1.738,2.047,2.047,0,0,0-1.558-.674,2.056,2.056,0,0,0-1.533.63,2.841,2.841,0,0,0-.723,1.782ZM36.719,0H34.57V-8.135H33.1V-9.863H34.57v-.488a3.611,3.611,0,0,1,.7-2.324q.7-.879,2.842-.879.312,0,.791.02v1.748q-.42-.029-.576-.029a2.2,2.2,0,0,0-1.152.22.842.842,0,0,0-.4.518,7.261,7.261,0,0,0-.063,1.216H38.9v1.729H36.719Zm6.045-11.016H40.537V-13.33h2.227ZM42.764,0H40.537V-9.863h2.227Zm4.9,0H45.439V-9.863h2.012V-7.51a4.2,4.2,0,0,1,1.182-2.012,2.379,2.379,0,0,1,1.543-.635q.107,0,.293.01v2.393A2.278,2.278,0,0,0,48.218-6.67a4.619,4.619,0,0,0-.552,2.1ZM66.8,0H64.463V-6.143q0-1.914-1.7-1.914a1.934,1.934,0,0,0-1.577.723A3.353,3.353,0,0,0,60.6-5.176V0H58.232V-6.143q0-1.943-1.592-1.943a2.047,2.047,0,0,0-1.626.781,3.2,3.2,0,0,0-.659,2.129V0H52.061V-9.863h2.158v2.1a3.462,3.462,0,0,1,3.291-2.3,2.766,2.766,0,0,1,2.832,2.3,3.637,3.637,0,0,1,3.291-2.3,3.065,3.065,0,0,1,2.295.889,3.032,3.032,0,0,1,.872,2.2ZM76.836-9.863,73,1.367a3.847,3.847,0,0,1-.962,1.606,2.426,2.426,0,0,1-1.724.571q-.439,0-1.279-.068V1.709l1.064.02a1.872,1.872,0,0,0,1.04-.229A1.533,1.533,0,0,0,71.67.684,4.081,4.081,0,0,0,71.87,0a4.513,4.513,0,0,0-.2-.605L68.271-9.863h2.334L73-3.359l2.061-6.5Z" transform="translate(5808 1210.729)" fill="#40bfef"/></g><g transform="translate(5716 1061.802)"><g transform="translate(58.448 3.421)"><path d="M409.888,23.993l-.423,2.418a3.929,3.929,0,0,1,1.481-1.875,6.133,6.133,0,0,1,3.415-1c2.539,0,4.232,1.45,4.232,3.658a9.539,9.539,0,0,1-.151,1.511L416.749,38.9H411.1l1.481-8.948a6.637,6.637,0,0,0,.151-1.179c0-.786-.453-1.209-1.33-1.209-1.179,0-1.9.786-2.177,2.388L407.711,38.9H402.18l2.508-14.9h5.2Z" transform="translate(-402.18 -23.54)" fill="#41c0f0"/><path d="M528.572,33.087a5.954,5.954,0,0,0-.09.907,2.019,2.019,0,0,0,2.237,2.055,2.556,2.556,0,0,0,2.539-1.875l5.018.817a6.966,6.966,0,0,1-2.508,3.084,8.639,8.639,0,0,1-5.472,1.814c-4.5,0-7.466-2.811-7.466-7.073a8.53,8.53,0,0,1,8.8-8.646c4.5,0,7.375,2.811,7.375,7.224a7.867,7.867,0,0,1-.182,1.693H528.573Zm4.867-2.872a3.838,3.838,0,0,0,.09-.725,1.852,1.852,0,0,0-1.875-1.965c-1.36,0-2.357,1.027-2.659,2.69Z" transform="translate(-505.296 -24.078)" fill="#41c0f0"/><path d="M657.462,31.243a8.494,8.494,0,0,1-8.8,8.646,7.371,7.371,0,0,1-5.35-2,6.156,6.156,0,0,1-2-4.927,8.415,8.415,0,0,1,8.675-8.8c4.534,0,7.466,2.78,7.466,7.073ZM647.85,29.7a17.4,17.4,0,0,0-.695,4.232c0,1.481.635,2.328,1.753,2.328,1,0,1.572-.574,2.026-2.026a15.959,15.959,0,0,0,.635-4.142c0-1.511-.635-2.357-1.724-2.357C648.908,27.736,648.273,28.341,647.85,29.7Z" transform="translate(-606.566 -24.078)" fill="#41c0f0"/></g><path d="M27.11,24.54q-8.007.61-8.012,5.118,0,2.474,2.594,2.475a4.99,4.99,0,0,0,3.319-1.481q1.655-1.491,2.1-6.113h0Zm19.426,10.1L38.684,0,4.045,7.852l1.26,5.56L0,14.614,7.854,49.255,42.493,41.4l-1.26-5.56,5.3-1.2Zm-8.563-4.393a39.911,39.911,0,0,0-.795,5.675,13.113,13.113,0,0,0,.3,2.594h-11.5c-.06-.567-.09-1.023-.09-1.372,0-.984.07-2.147.2-3.489a10.82,10.82,0,0,1-9.661,5.527,9.55,9.55,0,0,1-6.788-2.415,7.923,7.923,0,0,1-2.594-6.053,9.251,9.251,0,0,1,1.4-4.97A9.912,9.912,0,0,1,12.4,22.154a17.112,17.112,0,0,1,5.248-1.769c1.779-.279,5.278-.666,10.477-1.144a5.74,5.74,0,0,0,.347-1.69c0-1.61-1.123-2.426-3.37-2.426a5.138,5.138,0,0,0-4.9,3.3l-9.571-1.958Q14.266,8.283,26.64,8.288q6.263,0,9.84,2.167a7.034,7.034,0,0,1,3.588,6.392q0,1.894-2.1,13.4Z" fill="#fff"/><g transform="translate(54.555 16.12)"><path d="M383.877,159.908l-.417,2.353c1.311-2.085,2.295-2.741,4.142-2.741,3.069,0,5.036,2.443,5.036,6.285a11.207,11.207,0,0,1-2,6.435,5.835,5.835,0,0,1-4.946,2.681,3.8,3.8,0,0,1-3.664-2.055l-1.073,6.406h-5.57l3.247-19.365h5.243Zm-1.192,9.682c0,1.1.6,1.788,1.52,1.788,1.043,0,1.639-.744,2.085-2.532a17.854,17.854,0,0,0,.536-3.486c0-1.4-.536-2.145-1.58-2.145-.953,0-1.461.507-1.937,2a38.512,38.512,0,0,0-.626,4.379Z" transform="translate(-375.39 -152.457)" fill="#fff"/><path d="M502.829,159.566l-.6,3.516c1.192-2.83,2.532-3.962,4.677-3.962.15,0,.388.031.686.06l-.655,5.243c-.536-.031-.775-.031-1.073-.031-2.324,0-3.337,1.042-3.813,3.873l-1.013,5.989H495.47l2.473-14.688Z" transform="translate(-478.019 -152.115)" fill="#fff"/><path d="M579.423,168.509a5.978,5.978,0,0,0-.09.894,1.991,1.991,0,0,0,2.2,2.026,2.52,2.52,0,0,0,2.5-1.847l4.946.8a6.858,6.858,0,0,1-2.474,3.039,8.523,8.523,0,0,1-5.393,1.788c-4.438,0-7.359-2.771-7.359-6.971a8.407,8.407,0,0,1,8.67-8.521c4.438,0,7.269,2.771,7.269,7.121a7.8,7.8,0,0,1-.179,1.668h-10.1Zm4.8-2.83a3.858,3.858,0,0,0,.09-.715,1.825,1.825,0,0,0-1.847-1.937c-1.341,0-2.324,1.013-2.622,2.652Z" transform="translate(-544.931 -152.628)" fill="#fff"/><path d="M692.048,159.566l-.417,2.383a3.876,3.876,0,0,1,1.459-1.847,6.056,6.056,0,0,1,3.367-.982c2.5,0,4.171,1.43,4.171,3.6a9.243,9.243,0,0,1-.15,1.49l-1.668,10.041h-5.57l1.459-8.819a6.52,6.52,0,0,0,.15-1.163c0-.775-.448-1.192-1.311-1.192-1.163,0-1.878.775-2.145,2.354l-1.49,8.819H684.45l2.472-14.688h5.124Z" transform="translate(-639.535 -152.115)" fill="#fff"/><path d="M806.345,133.058a3.42,3.42,0,0,1-.06-.715c0-.417.031-1.1.089-1.7a5.349,5.349,0,0,1-4.826,2.741c-2.741,0-4.678-1.757-4.678-4.231,0-2.2,1.311-3.873,3.694-4.707,1.311-.477,2.115-.6,5.868-.924l.984-.09a3.206,3.206,0,0,0,.179-.834c0-.744-.655-1.192-1.7-1.192a2.528,2.528,0,0,0-2.443,1.609l-4.8-.953a5.683,5.683,0,0,1,2.145-2.622,10.1,10.1,0,0,1,5.81-1.459c4.2,0,6.764,1.549,6.764,4.081,0,.715-.448,3.635-1.282,8.133a11.713,11.713,0,0,0-.148,1.728,6.4,6.4,0,0,0,.119,1.132h-5.72Zm-2.264-6.316a2.084,2.084,0,0,0-1.192,1.907,1.173,1.173,0,0,0,1.28,1.221,2.624,2.624,0,0,0,2.235-1.52,7.478,7.478,0,0,0,.477-2.264,6.228,6.228,0,0,0-2.8.655Zm7.181-15.821,1.013,2.741-6.942,2.5-.775-1.878,6.7-3.367Z" transform="translate(-735.617 -110.92)" fill="#fff"/><path d="M898.114,143.214c-.357,2.145-.715,3.039-1.459,3.873-1.222,1.341-2.92,1.907-5.632,1.907a11.789,11.789,0,0,1-2.324-.238l.417-4.023a4.8,4.8,0,0,0,1.042.119c1.58,0,2.056-.417,2.264-1.907.06-.388.119-.775.209-1.192l2.115-12.692H900.5Zm2.591-15.463h-5.751l.715-4.321h5.749l-.715,4.321Z" transform="translate(-814.101 -121.612)" fill="#fff"/><path d="M985.841,166.693a8.372,8.372,0,0,1-8.67,8.521,7.271,7.271,0,0,1-5.274-1.966,6.07,6.07,0,0,1-1.966-4.857,8.294,8.294,0,0,1,8.551-8.67c4.469,0,7.359,2.741,7.359,6.971Zm-9.474-1.52a17.185,17.185,0,0,0-.686,4.171c0,1.459.626,2.295,1.728,2.295.982,0,1.549-.565,2-2a15.755,15.755,0,0,0,.625-4.081c0-1.49-.625-2.324-1.7-2.324-.923,0-1.549.6-1.966,1.937Z" transform="translate(-883.526 -152.628)" fill="#fff"/><path d="M1087.69,159.558l-.388,2.264a6.4,6.4,0,0,1,1.282-1.58,5.184,5.184,0,0,1,3.248-1.132,3.608,3.608,0,0,1,3.723,2.712,4.6,4.6,0,0,1,4.379-2.622c2.593,0,4.29,1.58,4.29,3.963a8.788,8.788,0,0,1-.119,1.52l-1.609,9.564h-5.572l1.461-8.7a7.026,7.026,0,0,0,.089-1.042,1.124,1.124,0,0,0-1.192-1.282,1.627,1.627,0,0,0-1.4.834,4.635,4.635,0,0,0-.507,1.757l-1.4,8.432h-5.422l1.459-8.7c.06-.477.119-.894.119-1.163a1.152,1.152,0,0,0-1.163-1.251,1.863,1.863,0,0,0-1.37.684,4.12,4.12,0,0,0-.536,1.728l-1.459,8.7h-5.393l2.472-14.688h5.005Z" transform="translate(-977.779 -152.107)" fill="#fff"/></g></g></g></svg>