<svg xmlns="http://www.w3.org/2000/svg" width="103.5" height="58.875" viewBox="0 0 103.5 58.875"><path d="M102.75,52.875H94.875V2.625A2.628,2.628,0,0,0,92.25,0h-81A2.628,2.628,0,0,0,8.625,2.625v50.25H.75a.75.75,0,0,0-.75.75v1.5a.753.753,0,0,0,.513.712l3.458,1.152a36.7,36.7,0,0,0,11.622,1.886H87.908a36.7,36.7,0,0,0,11.622-1.886l3.458-1.152a.753.753,0,0,0,.513-.712v-1.5a.75.75,0,0,0-.75-.75M16.5,55.125a.75.75,0,1,1,.75-.75.75.75,0,0,1-.75.75m76.125-2.25H10.875V2.625a.375.375,0,0,1,.375-.375h81a.375.375,0,0,1,.375.375Z"/></svg>