<svg xmlns="http://www.w3.org/2000/svg" width="23.638" height="22" viewBox="0 0 23.638 22"><g transform="translate(0.01)"><path d="M1.479,11.766v2.851H2.958V13.138a1.475,1.475,0,0,1,2.947,0v7.383a1.479,1.479,0,0,1-2.957,0h0V19.043H1.469A1.487,1.487,0,0,1-.01,17.574h0V11.787a11.819,11.819,0,0,1,23.638.053c-.021,1.117-.021,3.032,0,5.734a1.471,1.471,0,0,1-1.468,1.468H20.681v1.479a1.479,1.479,0,0,1-2.957,0V13.138a1.479,1.479,0,0,1,2.957.011v1.479H22.16v-2.8A10.343,10.343,0,0,0,1.479,11.4v.362Z" transform="translate(0)" fill-rule="evenodd"/></g></svg>