<svg xmlns="http://www.w3.org/2000/svg" width="33.5" height="29.5" viewBox="0 0 33.5 29.5"><path d="M16.889-.75a6.049,6.049,0,0,1,6.083,6v.482A6.14,6.14,0,0,1,26.667,4.5h2.742L28.234,9.121A9.677,9.677,0,0,1,29.956,11.5h.266A2.517,2.517,0,0,1,32.75,14v5.25a2.517,2.517,0,0,1-2.528,2.5H28.806a9.649,9.649,0,0,1-1.389,1.368V26.25a2.517,2.517,0,0,1-2.528,2.5H23.111a2.517,2.517,0,0,1-2.528-2.5v-1H14.972v1a2.517,2.517,0,0,1-2.528,2.5H10.667a2.517,2.517,0,0,1-2.528-2.5V23.119a9.489,9.489,0,0,1-3.414-5.744H3.778a4.469,4.469,0,1,1,0-8.937H4A2.075,2.075,0,0,1,6.083,10.5q0,.085-.007.168a9.554,9.554,0,0,1,1.157-1.46A9.708,9.708,0,0,1,14.222,6.25h7.111c.21,0,.419.006.621.018h.009c.126.009.245.019.358.03q.119-.12.245-.232l-.4-.03C21.829,6.011,21.572,6,21.333,6H14.222a10.17,10.17,0,0,0-2.473.306l-.885.222-.046-.911c-.006-.117-.012-.238-.012-.366A6.049,6.049,0,0,1,16.889-.75Zm4.52,5.25a4.6,4.6,0,0,0-9.063.152A11.669,11.669,0,0,1,14.222,4.5h7.186ZM27.48,6h-.813a4.627,4.627,0,0,0-3.49,1.58l-.267.306-.4-.057c-.191-.027-.4-.048-.643-.065-.172-.01-.351-.015-.53-.015H14.222a8.214,8.214,0,0,0-2.062.26,8.1,8.1,0,0,0-5.915,6.141l-.123.6H3.778a1.844,1.844,0,1,1,0-3.687H4A.563.563,0,1,0,4,9.938H3.778a2.969,2.969,0,1,0,0,5.938H6.056l.068.675a7.974,7.974,0,0,0,3.211,5.6l.3.225V26.25a1.015,1.015,0,0,0,1.028,1h1.778a1.015,1.015,0,0,0,1.028-1v-2.5h8.611v2.5a1.015,1.015,0,0,0,1.028,1h1.778a1.015,1.015,0,0,0,1.028-1V22.372l.3-.225a8.151,8.151,0,0,0,1.628-1.6l.225-.295h2.149a1.015,1.015,0,0,0,1.028-1V14a1.015,1.015,0,0,0-1.028-1H29l-.2-.445a8.128,8.128,0,0,0-1.906-2.646l-.329-.3ZM4.92,13.25a9.319,9.319,0,0,1,.4-1.158A2.086,2.086,0,0,1,4,12.563H3.778a.344.344,0,1,0,0,.688Zm18.635-.875a2.063,2.063,0,1,1-2.083,2.063A2.075,2.075,0,0,1,23.556,12.375Zm0,2.625a.563.563,0,1,0-.583-.562A.567.567,0,0,0,23.556,15Z" transform="translate(0.75 0.75)" fill="#40bfef"/></svg>