<svg xmlns="http://www.w3.org/2000/svg" width="83.75" height="71.25" viewBox="0 0 83.75 71.25"><path d="M1.25,8.125v41.25H50V52.5H1.875A1.877,1.877,0,0,1,0,50.625V8.125A1.877,1.877,0,0,1,1.875,6.25H50V7.5H1.875a.626.626,0,0,0-.625.625M43.75,62.5h-.625a6.884,6.884,0,0,1-6.875-6.875V53.75H30v1.875A6.884,6.884,0,0,1,23.125,62.5H22.5a1.25,1.25,0,0,0-1.25,1.25V65a1.25,1.25,0,0,0,1.25,1.25H43.75A1.25,1.25,0,0,0,45,65V63.75a1.25,1.25,0,0,0-1.25-1.25m40-59.375v65a3.128,3.128,0,0,1-3.125,3.125H54.375a3.128,3.128,0,0,1-3.125-3.125v-65A3.129,3.129,0,0,1,54.375,0h26.25A3.129,3.129,0,0,1,83.75,3.125M58.125,5A1.875,1.875,0,1,0,56.25,6.875,1.876,1.876,0,0,0,58.125,5"/></svg>