<svg xmlns="http://www.w3.org/2000/svg" width="22" height="22" viewBox="0 0 22 22"><path d="M0,0H22V22H0Z" fill="none"/><path d="M11,0A11,11,0,1,1,0,11,11,11,0,0,1,11,0Zm.825,14.62H9.614V16.5h2.211Zm-.911-9.227a3.98,3.98,0,0,0-2.538.768,2.523,2.523,0,0,0-.948,1.975l0,.235.015.045H9.577a1.225,1.225,0,0,1,.394-.969,1.4,1.4,0,0,1,.944-.331,1.355,1.355,0,0,1,1.042.391,1.527,1.527,0,0,1,.365,1.084A2.066,2.066,0,0,1,12,9.717a3.994,3.994,0,0,1-.855.939,5.177,5.177,0,0,0-1.214,1.188,2.731,2.731,0,0,0-.306,1.287l-.006.255H11.81a2.7,2.7,0,0,1,.143-.981,1.78,1.78,0,0,1,.6-.711,5.006,5.006,0,0,0,1.4-1.361,3.049,3.049,0,0,0,.561-1.768,2.945,2.945,0,0,0-.959-2.32A3.835,3.835,0,0,0,10.914,5.393Z" fill-rule="evenodd"/></svg>