<svg xmlns="http://www.w3.org/2000/svg" width="36" height="36" viewBox="0 0 36 36"><g transform="translate(-523 -4585)"><rect width="36" height="36" transform="translate(523 4585)" fill="none"/><path d="M48-.75a6.736,6.736,0,0,1,5.717,3.172l2.027,3.241L56.8,5.05a2.25,2.25,0,0,1,3.3,2.53l-1.463,5.463a2.251,2.251,0,0,1-2.754,1.593L50.42,13.174a2.246,2.246,0,0,1-.541-4.119l1.1-.635L49.047,5.335a1.237,1.237,0,0,0-2.1,0L45.851,7.085a2.75,2.75,0,0,1-4.665-2.914l1.094-1.75A6.736,6.736,0,0,1,48-.75Zm7.24,8.436-2.8-4.47a5.238,5.238,0,0,0-8.888,0L42.458,4.966a1.25,1.25,0,1,0,2.12,1.325L45.672,4.54a2.737,2.737,0,0,1,4.647,0l2.755,4.4-2.448,1.414a.746.746,0,0,0,.18,1.369l5.463,1.463a.751.751,0,0,0,.918-.53L58.65,7.193a.752.752,0,0,0-.269-.792.744.744,0,0,0-.828-.054Zm-14.777.069a2.252,2.252,0,0,1,2.175,1.671L44.1,14.88a2.261,2.261,0,0,1-.8,2.367,2.233,2.233,0,0,1-2.5.162l-1.026-.592-2.834,4.535a1.242,1.242,0,0,0,1.051,1.9H40a2.75,2.75,0,0,1,0,5.5H37.985a6.735,6.735,0,0,1-5.709-10.311l2.731-4.371-1.134-.655a2.246,2.246,0,0,1,.545-4.118l5.46-1.462A2.26,2.26,0,0,1,40.458,7.755Zm1.469,8.462a.718.718,0,0,0,.445-.153.763.763,0,0,0,.274-.8L41.185,9.812a.751.751,0,0,0-.92-.532L34.8,10.743a.746.746,0,0,0-.178,1.371L37.1,13.544l-3.554,5.689a5.236,5.236,0,0,0,4.438,8.015H40a1.25,1.25,0,0,0,0-2.5H37.985A2.742,2.742,0,0,1,35.66,20.56l3.6-5.766,2.283,1.318A.754.754,0,0,0,41.927,16.217Zm17.937-1.51A2.73,2.73,0,0,1,62.2,16l1.524,2.443a6.814,6.814,0,0,1,1.026,3.526,6.741,6.741,0,0,1-6.736,6.783l-5.268-.005V30A2.251,2.251,0,0,1,48.9,31.591l-4-4a2.244,2.244,0,0,1,0-3.182l4-4A2.251,2.251,0,0,1,52.744,22v1.25h5.261a1.242,1.242,0,0,0,1.05-1.9l-1.524-2.442a2.752,2.752,0,0,1,2.333-4.208ZM58.013,27.255a5.242,5.242,0,0,0,5.236-5.27,5.31,5.31,0,0,0-.8-2.745L60.925,16.8A1.25,1.25,0,1,0,58.8,18.12l1.525,2.444a2.742,2.742,0,0,1-2.323,4.191H51.244V22a.745.745,0,0,0-.46-.694.763.763,0,0,0-.292-.058.745.745,0,0,0-.53.22l-4,4a.734.734,0,0,0-.221.525.747.747,0,0,0,.221.533l4,4a.745.745,0,0,0,.53.22.763.763,0,0,0,.292-.058.745.745,0,0,0,.46-.694V27.248Z" transform="translate(493.501 4587.5)" fill="#40bfef"/></g></svg>