<svg xmlns="http://www.w3.org/2000/svg" width="26.9" height="26.781" viewBox="0 0 26.9 26.781"><path d="M12.523,26.726q-.11,0-.219-.005c-.073,0-.145-.01-.217-.017s-.143-.018-.213-.029-.14-.026-.21-.041-.139-.034-.208-.053-.137-.042-.2-.066-.135-.05-.2-.078-.131-.058-.195-.089q-.743-.366-1.437-.8a16.217,16.217,0,0,1-1.335-.925,15.96,15.96,0,0,1-1.228-1.049,15.786,15.786,0,0,1-1.116-1.17q-.462-.536-.881-1.118t-.793-1.206q-.374-.624-.7-1.289t-.609-1.369q-.239-.6-.441-1.217t-.37-1.263q-.167-.642-.3-1.3T1.419,12.3c-.051-.373-.094-.749-.127-1.125s-.058-.752-.073-1.125S1.2,9.306,1.2,8.94s.015-.726.036-1.079q.01-.157.031-.312c.015-.1.032-.206.055-.308s.048-.2.078-.3.064-.2.1-.3.074-.185.117-.276.088-.181.137-.269.1-.175.157-.26.114-.168.176-.25.122-.156.186-.231.132-.148.2-.218.142-.139.217-.2.152-.129.231-.19.159-.119.241-.175.166-.108.251-.157.172-.1.261-.139.178-.084.269-.121L13.32.279l.059-.025L13.437.23,13.5.208l.059-.021.069-.022.069-.02.069-.018.069-.016L13.9.1l.068-.012.068-.01L14.1.07l.068-.006.068,0,.068,0h.136l.068,0,.068,0,.067.007.068.009.067.01L14.849.1l.066.014.065.016.065.018.065.02.064.021.059.022.058.023.057.024L15.4.286l8.767,3.928q.126.056.247.121t.237.14q.116.074.226.158c.074.056.145.114.214.175s.136.124.2.189.126.134.185.2.115.143.169.218.1.152.152.231.1.164.138.249.083.171.119.259.069.177.1.268.055.183.077.276.043.194.058.292.028.2.035.3.012.2.012.3,0,.2-.012.308c-.028.352-.066.711-.113,1.074s-.1.732-.171,1.1-.142.743-.226,1.115-.177.743-.278,1.112q-.185.674-.4,1.331t-.473,1.294q-.253.637-.538,1.254t-.6,1.209q-.374.7-.791,1.363t-.872,1.285q-.456.622-.951,1.2t-1.026,1.116q-.611.615-1.271,1.173t-1.367,1.055q-.707.5-1.458.933t-1.545.808q-.1.048-.206.09t-.211.079q-.106.037-.214.068t-.217.056q-.106.024-.213.043t-.216.031q-.109.013-.219.019C12.67,26.723,12.6,26.726,12.523,26.726ZM14.24,2.04h-.062l-.015,0-.015,0-.014,0-.014,0-.014,0-.013,0-.013,0-.012,0-.013,0-.015.006-.015.006-.016.007-.025.011L4.6,5.979c-.046.019-.092.04-.137.062s-.089.046-.133.071-.086.052-.127.08-.083.058-.122.088l0,0q-.06.047-.118.1t-.111.1q-.053.054-.1.111t-.095.118l0,0q-.046.061-.088.124c-.028.042-.054.085-.078.129s-.047.089-.069.134-.041.092-.059.139-.036.1-.051.15-.028.1-.039.152-.02.1-.027.155-.013.1-.016.157c-.02.32-.03.648-.033.982s0,.671.017,1.012.036.684.067,1.028.069.688.116,1.03q.085.622.2,1.228t.271,1.193q.152.587.337,1.154T4.6,16.6q.252.634.547,1.233t.63,1.16q.335.561.71,1.083t.788,1a14.1,14.1,0,0,0,2.085,1.976q.571.44,1.189.825t1.281.712q.048.024.1.044c.032.014.065.027.1.038s.067.023.1.033.069.019.1.027a1.817,1.817,0,0,0,.21.035,1.933,1.933,0,0,0,.215.011,1.965,1.965,0,0,0,.216-.013,1.92,1.92,0,0,0,.212-.036q.055-.012.109-.028t.107-.033c.035-.012.07-.025.1-.039s.069-.029.1-.045q.709-.332,1.379-.721t1.3-.832q.631-.443,1.219-.939t1.132-1.044q.476-.48.92-1t.853-1.081q.409-.56.784-1.156t.712-1.228q.289-.541.549-1.105t.492-1.147q.231-.584.432-1.186t.371-1.22c.093-.338.178-.679.255-1.02s.146-.682.207-1.02.113-.675.157-1.007.077-.659.1-.979c0-.051.006-.1.006-.154s0-.1-.006-.152-.01-.1-.018-.15-.018-.1-.03-.147-.024-.093-.039-.139-.031-.09-.049-.135-.038-.088-.06-.13-.045-.084-.07-.125-.051-.08-.078-.118-.056-.075-.086-.111-.062-.071-.1-.1-.067-.066-.1-.1-.072-.062-.11-.09-.076-.055-.115-.081-.08-.049-.121-.071-.083-.043-.126-.062L14.477,2.1l-.016-.007-.016-.007-.016-.006-.016-.006-.012,0-.013,0-.014,0-.014,0-.014,0-.015,0-.015,0-.015,0h-.06ZM11.907,18.98h-.049l-.047,0-.046,0-.045,0-.037,0-.038-.005-.038-.006-.037-.006-.045-.009-.044-.01-.044-.011-.044-.012-.044-.014-.045-.015-.045-.017-.044-.018-.036-.015-.035-.016-.034-.017-.035-.018-.036-.019-.028-.016-.031-.019-.034-.021-.035-.024-.039-.027-.034-.025L10.81,18.6l-.024-.019-.005,0-.035-.03-.034-.031-.034-.033-.034-.035-.01-.01-.01-.011-.01-.011L10.6,18.4l-.076-.092-.015-.019-.013-.018-.012-.017-.01-.015-3.27-3.495-.028-.031-.028-.032-.028-.034L7.1,14.616l-.029-.039-.028-.04-.027-.04-.025-.04-.024-.042-.021-.04-.019-.039c-.006-.013-.012-.025-.018-.038l-.018-.041-.016-.039c0-.012-.01-.024-.014-.036l-.012-.032,0-.011L6.828,14.1l-.013-.042c0-.014-.008-.029-.012-.044s-.007-.03-.011-.046l0-.008-.009-.043-.008-.042c0-.014,0-.027-.007-.041s0-.027-.006-.04,0-.031-.005-.046,0-.031,0-.046,0-.031,0-.046,0-.03,0-.046,0-.03,0-.044v-.043c0-.014,0-.029,0-.043s0-.028,0-.042,0-.028,0-.042,0-.028,0-.043,0-.029.006-.043,0-.029.007-.044,0-.03.008-.046.006-.031.009-.046.007-.031.01-.046.008-.031.012-.046.007-.027.011-.04L6.833,13l.013-.042c0-.014.01-.028.015-.043l0-.008.017-.046.018-.044.018-.042.019-.041.007-.015.02-.039.02-.037L7,12.606l.02-.034.022-.037.024-.038.025-.038.027-.038.007-.009.025-.034.027-.034.029-.035.031-.036.01-.012.027-.03L7.3,12.2l.03-.03.032-.032.043-.04.028-.025.033-.028.038-.031.043-.033.036-.026.034-.024.034-.023.033-.022.039-.025.038-.022.035-.02.033-.018.038-.02.037-.018.037-.017.037-.016.038-.015.053-.02.048-.017.044-.014.036-.011.04-.011.04-.01.04-.01.04-.009.032-.006.038-.006.039-.006.039-.005.039,0,.045,0,.046,0,.048,0h.1l.047,0,.046,0,.045,0,.037,0L9,11.6l.038.006.037.006.034.007.04.009.038.01.038.01.037.011.043.014.042.014.041.015.04.016.037.016.036.017.036.017.035.018.038.021.029.017.029.018.029.018.029.019.044.031.039.029.034.027.03.025.045.039.039.037.033.033.027.029L12.23,14.5,17.4,9.666l.032-.028.032-.027.031-.026.03-.024.038-.029L17.6,9.5l.039-.027.039-.026.018-.012.038-.023.038-.022.037-.02.037-.019.045-.023.046-.021.046-.02.047-.018.042-.016.041-.015.04-.013.04-.012.007,0,.042-.011.042-.01.041-.009.04-.008.047-.009.047-.007.047-.006.047,0,.084-.006.086,0,.086,0,.084.006.046,0,.046.006.046.007.045.009.046.01.041.01.037.01.033.009.012,0,.039.013.04.014.04.015.039.016.043.018.042.019.041.021.042.022.038.022.037.022.036.023.035.023.033.023.033.025.034.026.034.028.014.012.033.03.032.031.032.032L20,9.685l.032.036.03.035.028.035.026.035.008.011.02.028.023.034.025.04.027.046.022.039.02.038.018.037.017.037.018.041.016.039.014.035.011.032,0,.01.013.039.011.04.012.042c0,.014.007.029.01.044l.01.044c0,.015.006.03.009.045s.005.031.008.047l.006.048c0,.015,0,.03.005.045s0,.03,0,.046,0,.031,0,.046,0,.031,0,.046,0,.027,0,.041,0,.028,0,.042,0,.029,0,.043,0,.03,0,.045,0,.03,0,.045,0,.029,0,.043,0,.028-.005.042,0,.027-.006.041-.005.031-.008.046-.006.031-.009.046l-.01.046c0,.015-.008.031-.012.046l-.013.047-.014.045-.014.044-.016.043-.016.042-.017.041-.018.04-.019.04-.007.014-.02.04-.021.039-.021.038-.022.037-.022.035-.022.035-.024.035L20.075,12l-.007.01-.025.034-.027.034-.029.035-.031.036-.013.014-.036.039-.034.036-.034.034-.034.032-6.569,6.144-.033.028-.031.027-.031.026-.031.024-.034.026-.037.027-.04.028-.043.029-.045.028-.042.025-.039.022-.036.019-.012.006-.04.02-.041.019-.042.018-.044.018-.047.018-.046.016-.043.014-.043.013-.044.012-.041.01-.037.008-.032.007-.035.007-.038.006-.038.006-.038.005-.038,0-.034,0-.034,0-.037,0-.04,0Z" fill="#40bfef"/></svg>