<svg xmlns="http://www.w3.org/2000/svg" width="80" height="80" viewBox="0 0 80 80"><g transform="translate(-2787 2382)"><path d="M9.66,23.816-.708,13.42a1,1,0,0,1,0-1.414,1,1,0,0,1,1.414,0L9.66,20.984,31.292-.706a1,1,0,0,1,1.414,0,1,1,0,0,1,0,1.414Z" transform="translate(2812.6 -2352.6)" fill="#84b417"/><path d="M40,2A38.011,38.011,0,0,0,25.209,75.015,38.01,38.01,0,0,0,54.791,4.985,37.76,37.76,0,0,0,40,2m0-2A40,40,0,1,1,0,40,40,40,0,0,1,40,0Z" transform="translate(2787 -2382)" fill="#84b517"/></g></svg>