<svg xmlns="http://www.w3.org/2000/svg" width="79.286" height="70.003" viewBox="0 0 79.286 70.003"><path d="M37.029.483,55.022,19.826l-19.373.1Zm13.5,17.444L38.613,5.1,37.705,18ZM14.189,2.1l20.675-.227-1.225,17.1a3.039,3.039,0,0,0,.152,1.207,2.824,2.824,0,0,0,.581.985,2.743,2.743,0,0,0,.919.663,2.839,2.839,0,0,0,1.166.24L53.539,22l-.453,6.954L39.968,41.447a7.979,7.979,0,0,0-1.747,2.444,7.821,7.821,0,0,0-.36.937l-2.441,7.78a5.658,5.658,0,0,0-.179.763,5.542,5.542,0,0,0-.071.772,5.437,5.437,0,0,0,.038.77,5.35,5.35,0,0,0,.148.757l.354,1.3-3.095-.023-.7-1.7a4.149,4.149,0,0,0-.611-1.032,3.9,3.9,0,0,0-1.892-1.279,4.087,4.087,0,0,0-1.177-.178,4.248,4.248,0,0,0-.75.063,4.41,4.41,0,0,0-.731.193,4.543,4.543,0,0,0-.695.316,4.633,4.633,0,0,0-.641.434l-1.2.97-1.4-6.44a2.321,2.321,0,0,0-.285-.716,2.232,2.232,0,0,0-.485-.56,2.17,2.17,0,0,0-1.378-.5,2.334,2.334,0,0,0-.761.126,2.6,2.6,0,0,0-.69.36,2.748,2.748,0,0,0-.959,1.267l-2.346,6.373a3.36,3.36,0,0,1-.481.884,3.276,3.276,0,0,1-.7.681,3.145,3.145,0,0,1-.857.436,3.013,3.013,0,0,1-.959.15L11.895,56.8a1.027,1.027,0,0,0-.41.083,1.146,1.146,0,0,0-.348.232,1.217,1.217,0,0,0-.25.346,1.2,1.2,0,0,0-.115.425,1.107,1.107,0,0,0,.048.426,1.009,1.009,0,0,0,.2.35.936.936,0,0,0,.708.327l1.023.008a5.07,5.07,0,0,0,1.628-.256,5.364,5.364,0,0,0,1.461-.748,5.655,5.655,0,0,0,1.194-1.169,5.838,5.838,0,0,0,.828-1.517l2.7-7.379,2.275,10.394a.967.967,0,0,0,.552.689.983.983,0,0,0,.3.08l.023,0,.023,0h.046a1,1,0,0,0,.286-.04,1.1,1.1,0,0,0,.267-.118,1.171,1.171,0,0,0,.413-.432l1.273-2.286a2.416,2.416,0,0,1,.874-.919,2.355,2.355,0,0,1,.576-.252,2.22,2.22,0,0,1,.623-.086,2.1,2.1,0,0,1,.6.092,2,2,0,0,1,.97.655,2.118,2.118,0,0,1,.312.528l.946,2.313a1,1,0,0,0,.147.249.949.949,0,0,0,.459.31,1,1,0,0,0,.286.044l8.112.067h.049l.057,0,.063-.006.066-.007.044,0q.114-.007.232-.019t.241-.031q.123-.019.251-.043t.264-.055l7.785-1.9q.116-.028.231-.061t.232-.07q.116-.038.234-.08t.237-.09l1.4-.556L51.045,60.3a9.884,9.884,0,0,1-.961,3.647,10.22,10.22,0,0,1-2.167,2.971A9.928,9.928,0,0,1,44.866,68.9a9.19,9.19,0,0,1-3.612.7L8.927,69.225a8.25,8.25,0,0,1-3.419-.772,8.119,8.119,0,0,1-2.676-2.023A8.506,8.506,0,0,1,1.16,63.466a9.208,9.208,0,0,1-.408-3.6L4.714,11.111a9.6,9.6,0,0,1,.97-3.479,10.16,10.16,0,0,1,2.1-2.853,9.936,9.936,0,0,1,2.935-1.94A9.068,9.068,0,0,1,14.189,2.1ZM32.822,3.784l-18.78.194a7.1,7.1,0,0,0-2.725.582A7.808,7.808,0,0,0,9.008,6.093,8.022,8.022,0,0,0,7.352,8.347,7.609,7.609,0,0,0,6.589,11.1L2.655,59.883a7.3,7.3,0,0,0,.321,2.842,6.719,6.719,0,0,0,1.315,2.339,6.379,6.379,0,0,0,2.1,1.595,6.456,6.456,0,0,0,2.686.607l32.308.357a7.193,7.193,0,0,0,2.836-.554,7.8,7.8,0,0,0,2.4-1.569,8.07,8.07,0,0,0,1.7-2.344,7.835,7.835,0,0,0,.757-2.877l.077-1.174L41.52,60.966q-.174.039-.341.071t-.328.056q-.161.024-.318.041t-.31.026l-.1.01-.106.009-.112.006-.118,0-8.117-.072a2.886,2.886,0,0,1-.822-.125,2.709,2.709,0,0,1-1.314-.884,2.825,2.825,0,0,1-.42-.71l-.944-2.313a.308.308,0,0,0-.039-.069.26.26,0,0,0-.053-.052.232.232,0,0,0-.063-.033.229.229,0,0,0-.072-.012.258.258,0,0,0-.072.01.283.283,0,0,0-.125.075.263.263,0,0,0-.043.059l-.01.019-1.276,2.292a3.3,3.3,0,0,1-1.185,1.23,3.186,3.186,0,0,1-.773.337,2.943,2.943,0,0,1-.83.114h-.068l-.068,0-.068,0-.067-.006a2.781,2.781,0,0,1-.851-.229,2.753,2.753,0,0,1-1.256-1.137,2.783,2.783,0,0,1-.313-.823l-.884-4.054-.393,1.075a7.97,7.97,0,0,1-.487,1.074,7.837,7.837,0,0,1-2.306,2.611,7.693,7.693,0,0,1-1,.609,7.287,7.287,0,0,1-1.055.438,7.022,7.022,0,0,1-1.1.262,6.914,6.914,0,0,1-1.124.082l-1.024-.009a2.742,2.742,0,0,1-1.13-.25,2.684,2.684,0,0,1-.887-.661A2.792,2.792,0,0,1,9,59.051a3.01,3.01,0,0,1-.139-1.184,3.254,3.254,0,0,1,.325-1.18,3.373,3.373,0,0,1,.708-.961,3.259,3.259,0,0,1,.988-.645,2.98,2.98,0,0,1,1.165-.231l1.022.007A1.037,1.037,0,0,0,13.4,54.8a1.1,1.1,0,0,0,.3-.155,1.159,1.159,0,0,0,.244-.241,1.2,1.2,0,0,0,.169-.313l0-.006,2.347-6.367a4.909,4.909,0,0,1,.3-.658,4.856,4.856,0,0,1,1.415-1.6,4.777,4.777,0,0,1,.615-.379,4.521,4.521,0,0,1,.651-.274,4.356,4.356,0,0,1,.677-.165,4.288,4.288,0,0,1,.695-.054,4.144,4.144,0,0,1,.686.059,3.942,3.942,0,0,1,.653.17,3.873,3.873,0,0,1,.61.278,3.955,3.955,0,0,1,1.437,1.4,4.046,4.046,0,0,1,.3.606,4.272,4.272,0,0,1,.2.662l.812,3.727a6.6,6.6,0,0,1,.687-.293,6.467,6.467,0,0,1,.711-.211,6.316,6.316,0,0,1,.727-.127,6.154,6.154,0,0,1,.736-.04,6,6,0,0,1,.861.067,5.844,5.844,0,0,1,.832.188,5.721,5.721,0,0,1,2.855,1.966,5.837,5.837,0,0,1,.348.5q.02-.176.049-.352t.065-.351q.037-.175.082-.349t.1-.347L36.01,44.36a9.883,9.883,0,0,1,.456-1.184,10.127,10.127,0,0,1,2.212-3.092L51.191,28.167l.278-4.232-15.147.054a4.672,4.672,0,0,1-1.9-.389,4.478,4.478,0,0,1-1.5-1.073,4.557,4.557,0,0,1-.948-1.592,4.866,4.866,0,0,1-.249-1.949Zm37.5,14.032a6.047,6.047,0,0,1,1.194.111,5.718,5.718,0,0,1,1.118.339,5.58,5.58,0,0,1,1.9,1.321l1.741,1.846a5.681,5.681,0,0,1,1.212,1.987,5.828,5.828,0,0,1,.279,1.142,6.143,6.143,0,0,1,.048,1.2,6.359,6.359,0,0,1-.186,1.207,6.427,6.427,0,0,1-.41,1.145,6.571,6.571,0,0,1-.622,1.056,6.773,6.773,0,0,1-.821.94l-4.756,4.529L61.2,24.1l4.695-4.471a6.831,6.831,0,0,1,.98-.772,6.568,6.568,0,0,1,1.082-.567,6.378,6.378,0,0,1,1.158-.351A6.28,6.28,0,0,1,70.317,17.817Zm.865,14.037,3.258-3.1a4.537,4.537,0,0,0,1-1.393,4.414,4.414,0,0,0,.4-1.586,4.141,4.141,0,0,0-.214-1.585,3.874,3.874,0,0,0-.835-1.39l-1.737-1.846a3.808,3.808,0,0,0-.6-.518,3.765,3.765,0,0,0-.686-.377,3.855,3.855,0,0,0-.754-.23,4.065,4.065,0,0,0-.805-.076,4.228,4.228,0,0,0-.816.084,4.311,4.311,0,0,0-.784.238,4.453,4.453,0,0,0-.733.384,4.639,4.639,0,0,0-.664.523l-3.268,3.112Zm-11.6-6.225,9.811,10.553L51.057,53.653a5.49,5.49,0,0,1-1.142.836,5.413,5.413,0,0,1-.638.3,5.333,5.333,0,0,1-.671.212L40.82,56.9q-.092.023-.185.04t-.187.028q-.094.011-.188.017t-.188,0a2.883,2.883,0,0,1-.585-.064,2.738,2.738,0,0,1-1.043-.467,2.806,2.806,0,0,1-.432-.392,2.843,2.843,0,0,1-.431-.634,2.874,2.874,0,0,1-.245-.718,3.01,3.01,0,0,1-.052-.768,3.228,3.228,0,0,1,.147-.786l2.437-7.782a5.447,5.447,0,0,1,.251-.657,5.587,5.587,0,0,1,1.225-1.717Zm7.048,10.552L59.4,28.4,42.639,44.377a3.448,3.448,0,0,0-.758,1.064,3.4,3.4,0,0,0-.156.409l-2.438,7.8a1.2,1.2,0,0,0-.054.289,1.1,1.1,0,0,0,.018.281,1.04,1.04,0,0,0,.089.261,1.027,1.027,0,0,0,.156.23,1.006,1.006,0,0,0,.151.137.956.956,0,0,0,.171.1.94.94,0,0,0,.188.063.96.96,0,0,0,.2.022l.064,0,.065-.006.065-.01L40.465,55l7.784-1.907a3.268,3.268,0,0,0,.41-.13,3.331,3.331,0,0,0,.754-.414,3.356,3.356,0,0,0,.333-.279Z" fill="#fff"/></svg>