<svg xmlns="http://www.w3.org/2000/svg" width="85.02" height="85.168" viewBox="0 0 85.02 85.168"><path d="M39.606,84.618a10.543,10.543,0,0,1-2.346-.231,10.233,10.233,0,0,1-1.126-.308,9.849,9.849,0,0,1-1.074-.433q-2.381-1.129-4.609-2.465t-4.3-2.877a50.646,50.646,0,0,1-7.6-6.96q-1.505-1.691-2.876-3.533t-2.6-3.831q-1.233-1.989-2.322-4.116t-2.029-4.39q-.8-1.925-1.485-3.932t-1.257-4.09q-.57-2.084-1.022-4.235t-.783-4.366c-.181-1.216-.333-2.441-.456-3.667s-.216-2.455-.28-3.676-.1-2.436-.1-3.633.026-2.381.086-3.539A11.293,11.293,0,0,1,4.1,21.063a11.817,11.817,0,0,1,1.57-2.933,12.212,12.212,0,0,1,2.343-2.415A12.374,12.374,0,0,1,11,13.993L42.844,1.11a6.288,6.288,0,0,1,1.277-.4,6.323,6.323,0,0,1,.663-.1A6.141,6.141,0,0,1,45.45.58a6.047,6.047,0,0,1,1.935.348,5.875,5.875,0,0,1,.6.252L77.261,14.635a10.016,10.016,0,0,1,2.617,1.734,9.9,9.9,0,0,1,1.9,2.392,10.163,10.163,0,0,1,1.1,2.878,10.746,10.746,0,0,1,.2,3.194c-.1,1.128-.229,2.279-.391,3.446s-.355,2.347-.578,3.536-.475,2.383-.755,3.577-.588,2.386-.923,3.57q-.61,2.156-1.328,4.256t-1.541,4.135q-.822,2.035-1.748,4t-1.95,3.856q-1.2,2.221-2.539,4.32T68.534,63.6Q67.076,65.568,65.5,67.4t-3.273,3.532q-1.942,1.943-4.04,3.706t-4.345,3.339q-2.247,1.577-4.639,2.963T44.28,83.522a11.607,11.607,0,0,1-2.3.8,11.334,11.334,0,0,1-1.187.213A10.858,10.858,0,0,1,39.606,84.618ZM45.312,2.564a4.226,4.226,0,0,0-.458.019,4.3,4.3,0,0,0-.9.183,4.173,4.173,0,0,0-.428.162l-.031.013L11.668,15.831A10.243,10.243,0,0,0,9.2,17.251a10.1,10.1,0,0,0-1.933,1.987A9.718,9.718,0,0,0,5.976,21.65a9.272,9.272,0,0,0-.553,2.691c-.058,1.125-.087,2.274-.085,3.44s.033,2.345.094,3.534.151,2.383.27,3.578.266,2.387.442,3.571q.32,2.155.759,4.252t.991,4.124q.553,2.027,1.22,3.983t1.442,3.827q.908,2.191,1.962,4.257t2.245,3.99q1.191,1.925,2.518,3.712t2.78,3.423A48.951,48.951,0,0,0,27.4,76.764q2,1.489,4.153,2.785T36,81.936a8.088,8.088,0,0,0,.882.356,8.4,8.4,0,0,0,.925.254,8.653,8.653,0,0,0,1.927.191,8.9,8.9,0,0,0,.979-.068,9.313,9.313,0,0,0,.976-.175,9.537,9.537,0,0,0,1.887-.657q2.446-1.151,4.761-2.493t4.488-2.866q2.174-1.524,4.2-3.229t3.907-3.584q1.641-1.642,3.171-3.422t2.943-3.69q1.414-1.91,2.707-3.947t2.462-4.192q1-1.841,1.9-3.757t1.7-3.9q.8-1.984,1.5-4.031t1.293-4.151c.326-1.154.626-2.317.9-3.481s.518-2.329.735-3.486.4-2.309.562-3.444.284-2.256.379-3.353a8.813,8.813,0,0,0-.166-2.628,8.348,8.348,0,0,0-.909-2.369,8.176,8.176,0,0,0-1.575-1.969,8.3,8.3,0,0,0-2.162-1.428L47.063,2.979a4.01,4.01,0,0,0-.415-.175,4.158,4.158,0,0,0-1.336-.241ZM37.507,59.22a3.845,3.845,0,0,1-.754-.07,3.609,3.609,0,0,1-.7-.212,3.485,3.485,0,0,1-1.2-.827L23.289,45.874a3.55,3.55,0,0,1-.776-1.284,3.77,3.77,0,0,1-.194-1.464,4.04,4.04,0,0,1,.379-1.465,4.224,4.224,0,0,1,.94-1.287,4.293,4.293,0,0,1,.628-.488,4.177,4.177,0,0,1,.694-.357,4.054,4.054,0,0,1,1.516-.293h0a3.894,3.894,0,0,1,.764.076,3.683,3.683,0,0,1,.714.22,3.577,3.577,0,0,1,1.211.846l8.974,9.57L57.105,32.213a4.333,4.333,0,0,1,.622-.484,4.124,4.124,0,0,1,.685-.353,4.008,4.008,0,0,1,.731-.216,3.92,3.92,0,0,1,.76-.071,3.749,3.749,0,0,1,.748.077,3.536,3.536,0,0,1,.7.221,3.438,3.438,0,0,1,.631.358,3.521,3.521,0,0,1,.982,1.078,3.522,3.522,0,0,1,.3.664,3.648,3.648,0,0,1,.161.72,3.878,3.878,0,0,1,.016.759,4.076,4.076,0,0,1-.4,1.476,4.206,4.206,0,0,1-.4.66,4.334,4.334,0,0,1-.523.587L40.307,58.085a4.294,4.294,0,0,1-.621.483,4.162,4.162,0,0,1-.685.355,4.063,4.063,0,0,1-.732.22A4.005,4.005,0,0,1,37.507,59.22ZM26.351,41.184a2.019,2.019,0,0,0-.386.037,2.042,2.042,0,0,0-.371.109,2.09,2.09,0,0,0-.346.178,2.146,2.146,0,0,0-.313.244,2.117,2.117,0,0,0-.47.643,2.022,2.022,0,0,0-.19.732,1.886,1.886,0,0,0,.1.732,1.776,1.776,0,0,0,.387.642L36.311,56.749a1.734,1.734,0,0,0,.6.414,1.8,1.8,0,0,0,.352.106,1.921,1.921,0,0,0,.377.035,2,2,0,0,0,.382-.039,2.04,2.04,0,0,0,.367-.11,2.1,2.1,0,0,0,.343-.178,2.148,2.148,0,0,0,.311-.242L60.865,36.325a2.158,2.158,0,0,0,.261-.293,2.092,2.092,0,0,0,.2-.33,2.033,2.033,0,0,0,.2-.739,1.989,1.989,0,0,0-.008-.38,1.842,1.842,0,0,0-.081-.36,1.756,1.756,0,0,0-.368-.627,1.726,1.726,0,0,0-.589-.422,1.765,1.765,0,0,0-.348-.11,1.878,1.878,0,0,0-.374-.038,1.95,1.95,0,0,0-.379.036,1.986,1.986,0,0,0-.365.108,2.068,2.068,0,0,0-.343.177,2.149,2.149,0,0,0-.311.242L37.953,52.671,27.7,41.754a1.788,1.788,0,0,0-.606-.422,1.847,1.847,0,0,0-.357-.11,1.949,1.949,0,0,0-.382-.038Z" fill="#fff"/></svg>