<svg xmlns="http://www.w3.org/2000/svg" width="55.071" height="87.823" viewBox="0 0 55.071 87.823"><path d="M44.284,87.666,10.47,87.174a9.708,9.708,0,0,1-4.08-.968,10.723,10.723,0,0,1-3.327-2.521A11.9,11.9,0,0,1,.821,79.991,12.571,12.571,0,0,1,0,75.5V41.477L11.957,53.96a1.956,1.956,0,0,0,.292.251,1.88,1.88,0,0,0,.328.184,1.851,1.851,0,0,0,1.794-.177,1.964,1.964,0,0,0,.293-.249l20.46-21.2a2.02,2.02,0,0,0,.423-.652,2.058,2.058,0,0,0,.11-.374,2.111,2.111,0,0,0,0-.789,2.044,2.044,0,0,0-.11-.373,2,2,0,0,0-.719-.9A1.9,1.9,0,0,0,34.5,29.5a1.864,1.864,0,0,0-.361-.111,1.894,1.894,0,0,0-1.457.3,2,2,0,0,0-.3.253L13.31,49.741,2.522,38.5a1.938,1.938,0,0,0-.29-.248,1.862,1.862,0,0,0-.326-.181,1.827,1.827,0,0,0-.727-.148H1.1l-.038,0-.038,0L0,38.015V12.323a12.573,12.573,0,0,1,.821-4.49A11.9,11.9,0,0,1,3.062,4.139,10.723,10.723,0,0,1,6.389,1.618,9.707,9.707,0,0,1,10.47.65L44.284.157a9.885,9.885,0,0,1,4.186.861A10.619,10.619,0,0,1,51.9,3.483a11.665,11.665,0,0,1,2.319,3.7,12.439,12.439,0,0,1,.852,4.553V76.089a12.437,12.437,0,0,1-.852,4.553,11.664,11.664,0,0,1-2.319,3.7,10.62,10.62,0,0,1-3.43,2.466A9.886,9.886,0,0,1,44.284,87.666ZM1.9,46.263V75.521a10.516,10.516,0,0,0,.673,3.719A9.87,9.87,0,0,0,4.406,82.3,8.787,8.787,0,0,0,7.13,84.386a7.863,7.863,0,0,0,3.339.8l33.814.47a8.006,8.006,0,0,0,3.424-.715A8.7,8.7,0,0,0,50.512,82.9a9.682,9.682,0,0,0,1.9-3.061,10.409,10.409,0,0,0,.7-3.767V11.756a10.411,10.411,0,0,0-.7-3.768,9.683,9.683,0,0,0-1.9-3.062,8.7,8.7,0,0,0-2.805-2.043,8.006,8.006,0,0,0-3.424-.715l-33.814.47a7.862,7.862,0,0,0-3.339.8A8.787,8.787,0,0,0,4.406,5.524,9.871,9.871,0,0,0,2.571,8.583,10.518,10.518,0,0,0,1.9,12.3v23.7a3.646,3.646,0,0,1,1.057.385,3.757,3.757,0,0,1,.477.313,3.878,3.878,0,0,1,.433.389l9.444,9.834,17.7-18.392a3.974,3.974,0,0,1,.591-.506,3.814,3.814,0,0,1,.665-.372,3.76,3.76,0,0,1,.723-.23,3.819,3.819,0,0,1,1.527-.008,3.737,3.737,0,0,1,.723.222,3.785,3.785,0,0,1,.666.365,3.92,3.92,0,0,1,.593.5,4.007,4.007,0,0,1,1.065,2.044,4.2,4.2,0,0,1,0,1.579,4.058,4.058,0,0,1-.22.749,4.006,4.006,0,0,1-.357.69,4.051,4.051,0,0,1-.488.614L16.02,55.382a3.887,3.887,0,0,1-.586.5,3.72,3.72,0,0,1-.658.364,3.676,3.676,0,0,1-.714.222,3.712,3.712,0,0,1-2.217-.234,3.755,3.755,0,0,1-.656-.368,3.934,3.934,0,0,1-.584-.5ZM32.12,79.506l-9.661-.115a3.156,3.156,0,0,1-1.31-.3,3.434,3.434,0,0,1-1.07-.795,3.743,3.743,0,0,1-.722-1.167,3.915,3.915,0,0,1-.265-1.421,3.872,3.872,0,0,1,.265-1.415,3.639,3.639,0,0,1,.722-1.152,3.333,3.333,0,0,1,1.07-.772,3.113,3.113,0,0,1,1.31-.275l9.661.091a3.179,3.179,0,0,1,1.319.3,3.454,3.454,0,0,1,1.08.8,3.763,3.763,0,0,1,.729,1.173,3.918,3.918,0,0,1,.267,1.429,3.871,3.871,0,0,1-.267,1.423,3.656,3.656,0,0,1-.729,1.157,3.351,3.351,0,0,1-1.08.773A3.139,3.139,0,0,1,32.12,79.506Zm-9.661-5.419a1.274,1.274,0,0,0-.562.124,1.437,1.437,0,0,0-.459.35,1.665,1.665,0,0,0-.31.522,1.874,1.874,0,0,0,0,1.285,1.711,1.711,0,0,0,.31.529,1.482,1.482,0,0,0,.459.36,1.293,1.293,0,0,0,.562.136l9.661.109a1.285,1.285,0,0,0,.565-.124,1.441,1.441,0,0,0,.462-.351,1.668,1.668,0,0,0,.312-.524,1.841,1.841,0,0,0,.115-.644,1.863,1.863,0,0,0-.115-.647,1.716,1.716,0,0,0-.312-.531,1.486,1.486,0,0,0-.462-.361,1.3,1.3,0,0,0-.565-.136Z" fill="#fff"/></svg>