<svg xmlns="http://www.w3.org/2000/svg" width="74.375" height="77.958" viewBox="0 0 74.375 77.958"><path d="M10.243.132h0a4.373,4.373,0,0,1,.73.071,4.292,4.292,0,0,1,.7.19A4.343,4.343,0,0,1,12.334.7a4.524,4.524,0,0,1,.612.419l14.88,11.94a4.433,4.433,0,0,1,.722.727,4.622,4.622,0,0,1,.54.87,4.691,4.691,0,0,1,.338.971,4.624,4.624,0,0,1,.117,1.032v7.515L44.208,39.387a11.551,11.551,0,0,1,3.5-.947,11.363,11.363,0,0,1,1.209-.065,11.51,11.51,0,0,1,2.322.236,11.335,11.335,0,0,1,2.2.691,11.486,11.486,0,0,1,2.019,1.123,11.949,11.949,0,0,1,1.792,1.533L72.8,58.153A5.569,5.569,0,0,1,73.978,60a5.909,5.909,0,0,1,0,4.233,5.687,5.687,0,0,1-1.177,1.87l-8.868,9.372a5.61,5.61,0,0,1-.824.718,5.363,5.363,0,0,1-.928.53,5.275,5.275,0,0,1-3.138.359,5.148,5.148,0,0,1-1.01-.306,5.213,5.213,0,0,1-.931-.507,5.428,5.428,0,0,1-.828-.7L40.546,59.38a12.117,12.117,0,0,1-2.21-3.131,12.3,12.3,0,0,1-.71-1.792,12.7,12.7,0,0,1-.43-1.91,12.946,12.946,0,0,1-.135-1.735,12.632,12.632,0,0,1,.985-5.032L23.321,30.566l-7.341-.021a4.264,4.264,0,0,1-1.008-.124,4.393,4.393,0,0,1-.948-.354,4.466,4.466,0,0,1-1.554-1.316L.916,13.291A4.69,4.69,0,0,1,.135,9.386,4.6,4.6,0,0,1,.4,8.617a4.538,4.538,0,0,1,.394-.707,4.476,4.476,0,0,1,.516-.627L7.1,1.421A4.489,4.489,0,0,1,7.781.86,4.338,4.338,0,0,1,8.545.453,4.294,4.294,0,0,1,9.373.208,4.361,4.361,0,0,1,10.243.132ZM43.818,41.8,27.6,24.994V16.644a2.625,2.625,0,0,0-.064-.578,2.549,2.549,0,0,0-.186-.538,2.515,2.515,0,0,0-.706-.886L11.741,2.7a2.5,2.5,0,0,0-.339-.232,2.4,2.4,0,0,0-.366-.17,2.376,2.376,0,0,0-.388-.105,2.421,2.421,0,0,0-.4-.039h0a2.43,2.43,0,0,0-.486.043A2.4,2.4,0,0,0,9.3,2.33a2.433,2.433,0,0,0-.427.228,2.525,2.525,0,0,0-.382.314L2.707,8.727a2.488,2.488,0,0,0-.51.755,2.6,2.6,0,0,0-.21.871,2.646,2.646,0,0,0,.1.9,2.6,2.6,0,0,0,.407.829L14.029,27.531a2.491,2.491,0,0,0,.865.734,2.438,2.438,0,0,0,.527.2,2.368,2.368,0,0,0,.56.07l8.148.028L40.384,45.37l-.316.647a10.648,10.648,0,0,0-.959,6.3,10.464,10.464,0,0,0,.948,3.02,10.2,10.2,0,0,0,1.85,2.624L57.624,74.152a3.518,3.518,0,0,0,.536.453,3.38,3.38,0,0,0,.6.329,3.339,3.339,0,0,0,.655.2,3.416,3.416,0,0,0,2.036-.231,3.478,3.478,0,0,0,.6-.343,3.637,3.637,0,0,0,.535-.465l8.876-9.372a3.689,3.689,0,0,0,.764-1.213,3.832,3.832,0,0,0,0-2.747,3.612,3.612,0,0,0-.764-1.2L55.9,43.365a10,10,0,0,0-1.5-1.284,9.62,9.62,0,0,0-1.692-.94,9.5,9.5,0,0,0-1.84-.578,9.645,9.645,0,0,0-1.946-.2,9.54,9.54,0,0,0-1.161.072,9.654,9.654,0,0,0-3.317,1.038ZM53.413.69q.565.007,1.13.045t1.125.106q.561.068,1.116.167t1.1.227a2.885,2.885,0,0,1,.724.277,2.815,2.815,0,0,1,.61.45,2.875,2.875,0,0,1,.471.6A3.054,3.054,0,0,1,60,3.288a3.223,3.223,0,0,1,.121.845,3.279,3.279,0,0,1-.923,2.31l-8.936,9.221a1.317,1.317,0,0,0-.161.2,1.372,1.372,0,0,0-.193.479,1.35,1.35,0,0,0-.025.26v8.387a1.38,1.38,0,0,0,.1.521,1.355,1.355,0,0,0,.276.427,1.3,1.3,0,0,0,.409.289,1.24,1.24,0,0,0,.5.107l8.025.034a1.194,1.194,0,0,0,.248-.025,1.242,1.242,0,0,0,.238-.075,1.281,1.281,0,0,0,.415-.288l8.877-9.221a3.213,3.213,0,0,1,.475-.407,3.019,3.019,0,0,1,.531-.3,2.9,2.9,0,0,1,1.174-.238h0a2.839,2.839,0,0,1,.967.175,2.725,2.725,0,0,1,.817.478,2.83,2.83,0,0,1,.614.736,3.125,3.125,0,0,1,.358.949q.115.564.2,1.137t.145,1.152q.058.579.087,1.163t.029,1.17a22.951,22.951,0,0,1-.215,3.138,22.584,22.584,0,0,1-.637,3.048,22.17,22.17,0,0,1-2.5,5.668,21.95,21.95,0,0,1-1.759,2.444,21.491,21.491,0,0,1-2.055,2.155,21.107,21.107,0,0,1-2.323,1.839,20.819,20.819,0,0,1-2.561,1.494l-.6.3-2.659-2.772a14.608,14.608,0,0,0-2.182-1.87,14.007,14.007,0,0,0-2.457-1.371A13.783,13.783,0,0,0,51.757,36a13.96,13.96,0,0,0-2.823-.29q-.446,0-.89.028t-.886.085q-.442.057-.879.141t-.869.2l-.529.138L32.15,23.079v-.532q0-1.12.106-2.221t.317-2.179q.211-1.077.526-2.129t.734-2.07q.4-.984.895-1.916t1.064-1.806q.574-.875,1.229-1.691t1.39-1.568q.734-.753,1.527-1.422t1.641-1.251q.847-.582,1.747-1.077t1.848-.9a20.417,20.417,0,0,1,1.991-.731A20.1,20.1,0,0,1,51.292.772,20.589,20.589,0,0,1,53.413.69ZM59.2,28.355l-8.025-.029a3.086,3.086,0,0,1-1.245-.267,3.229,3.229,0,0,1-1.018-.718,3.372,3.372,0,0,1-.688-1.062,3.433,3.433,0,0,1-.252-1.3V16.591a3.391,3.391,0,0,1,.063-.649,3.437,3.437,0,0,1,.183-.621,3.387,3.387,0,0,1,.3-.573,3.251,3.251,0,0,1,.4-.5l8.944-9.221a1.315,1.315,0,0,0,.222-.305,1.244,1.244,0,0,0,.142-.622,1.143,1.143,0,0,0-.041-.268,1.017,1.017,0,0,0-.065-.17.924.924,0,0,0-.124-.19.858.858,0,0,0-.2-.174.976.976,0,0,0-.3-.121q-.5-.116-1.005-.206t-1.017-.151q-.511-.062-1.025-.1t-1.03-.041a18.388,18.388,0,0,0-7.424,1.459A19.078,19.078,0,0,0,39.874,8.3,19.953,19.953,0,0,0,35.7,14.557a20.484,20.484,0,0,0-1.608,7.705L45.475,34.1q.426-.1.856-.167t.863-.119q.433-.047.868-.071t.871-.023q.793,0,1.575.081a15.6,15.6,0,0,1,3.065.626q.749.233,1.479.543a15.908,15.908,0,0,1,2.857,1.574,16.182,16.182,0,0,1,1.3,1q.626.535,1.206,1.14l1.705,1.779a19.025,19.025,0,0,0,4.3-3.155,19.894,19.894,0,0,0,3.267-4.182,20.5,20.5,0,0,0,2.808-10.36q0-.535-.027-1.067t-.079-1.06q-.053-.528-.132-1.049t-.184-1.035a1.038,1.038,0,0,0-.139-.354.852.852,0,0,0-.222-.235.907.907,0,0,0-.27-.131,1.012,1.012,0,0,0-.281-.042,1.075,1.075,0,0,0-.23.023,1.114,1.114,0,0,0-.221.071,1.194,1.194,0,0,0-.206.117,1.307,1.307,0,0,0-.187.161L61.443,27.39a3.172,3.172,0,0,1-1.032.715,3.1,3.1,0,0,1-.594.188A3,3,0,0,1,59.2,28.355ZM25.209,36.31l9.848,10.162-.134.551a15.722,15.722,0,0,0-.377,2.253,15.452,15.452,0,0,0,.855,6.693l.217.6L18.393,74.493q-.374.389-.78.737t-.841.652q-.435.3-.9.565t-.955.476q-.492.216-1,.38a10.562,10.562,0,0,1-5.235.33,10.387,10.387,0,0,1-3.862-1.591,10.786,10.786,0,0,1-1.65-1.369A10.946,10.946,0,0,1,.212,69.053,11.407,11.407,0,0,1,0,66.876q0-.548.052-1.089t.156-1.074q.1-.532.259-1.054t.361-1.031q.206-.508.456-.989t.544-.933q.294-.452.631-.874t.715-.811ZM32.919,47.1l-7.71-7.948L4.574,60.441a9.021,9.021,0,0,0-1.1,1.384,9.36,9.36,0,0,0-1.319,3.265,9.174,9.174,0,0,0,.523,5.281,8.96,8.96,0,0,0,1.9,2.855A8.706,8.706,0,0,0,7.38,75.132a8.519,8.519,0,0,0,5.14.472,8.794,8.794,0,0,0,1.642-.535,8.92,8.92,0,0,0,2.847-1.983l16.37-17.017a17.505,17.505,0,0,1-.784-6.712A17.755,17.755,0,0,1,32.919,47.1ZM12.546,60.42a4.382,4.382,0,0,1,.874.081,4.284,4.284,0,0,1,1.587.662,4.429,4.429,0,0,1,.675.564,4.489,4.489,0,0,1,.959,1.466,4.573,4.573,0,0,1,.249.846,4.777,4.777,0,0,1,0,1.792,4.638,4.638,0,0,1-.249.85,4.6,4.6,0,0,1-1.634,2.059,4.394,4.394,0,0,1-.76.425,4.346,4.346,0,0,1-.826.265,4.419,4.419,0,0,1-1.748.018,4.283,4.283,0,0,1-1.59-.658,4.427,4.427,0,0,1-.677-.564,4.488,4.488,0,0,1-.964-1.468,4.574,4.574,0,0,1-.25-.848,4.777,4.777,0,0,1,0-1.8,4.637,4.637,0,0,1,.25-.852,4.6,4.6,0,0,1,1.641-2.06,4.393,4.393,0,0,1,.762-.423,4.345,4.345,0,0,1,.828-.262A4.4,4.4,0,0,1,12.546,60.42Zm0,7.089a2.414,2.414,0,0,0,.96-.209,2.508,2.508,0,0,0,.785-.551,2.594,2.594,0,0,0,.529-2.782,2.521,2.521,0,0,0-.529-.8,2.447,2.447,0,0,0-.785-.538,2.39,2.39,0,0,0-.96-.192,2.414,2.414,0,0,0-.961.207,2.507,2.507,0,0,0-.786.551,2.594,2.594,0,0,0-.531,2.785,2.52,2.52,0,0,0,.531.8,2.448,2.448,0,0,0,.786.537A2.39,2.39,0,0,0,12.546,67.51Z" fill="#fff"/></svg>