<svg xmlns="http://www.w3.org/2000/svg" width="33.503" height="33.5" viewBox="0 0 33.503 33.5"><path d="M15.957-.75a6.745,6.745,0,0,1,6.632,8h1.868a3.737,3.737,0,0,1,3.634,2.838l4.5,18a3.751,3.751,0,0,1-3.634,4.663h-26a3.743,3.743,0,0,1-3.64-4.658l4.5-18A3.753,3.753,0,0,1,7.456,7.25H9.322a6.757,6.757,0,0,1,6.635-8Zm13,32a2.251,2.251,0,0,0,2.179-2.8l-4.5-18a2.24,2.24,0,0,0-2.179-1.7h-3.9l.349-1A5.25,5.25,0,1,0,10.706,6a5.139,5.139,0,0,0,.3,1.746l.361,1H7.456a2.255,2.255,0,0,0-2.185,1.709l-4.5,18A2.243,2.243,0,0,0,2.956,31.25Zm-13-28A2.75,2.75,0,1,1,13.207,6,2.753,2.753,0,0,1,15.957,3.25Zm0,4A1.25,1.25,0,1,0,14.707,6,1.251,1.251,0,0,0,15.957,7.25Z" transform="translate(0.798 0.75)" fill="#40bfef"/></svg>