<svg xmlns="http://www.w3.org/2000/svg" width="183.857" height="169.583" viewBox="0 0 183.857 169.583"><path d="M124.179-1h.185a40.4,40.4,0,0,1,13.62,2.851,44.882,44.882,0,0,1,6,2.785l22.187,12.81-.042-.085,17.72,10.23a77.37,77.37,0,0,1,7.923,5.188,62.194,62.194,0,0,1,6.611,5.607,32.5,32.5,0,0,1,5.5,6.917,40.587,40.587,0,0,1,4.342,13.23,45.046,45.046,0,0,1,.6,6.6V92.872l-.091-.136v18.319a77.342,77.342,0,0,1-.531,9.455,62.127,62.127,0,0,1-1.549,8.526,32.434,32.434,0,0,1-3.242,8.213,40.506,40.506,0,0,1-9.289,10.379,45.049,45.049,0,0,1-5.417,3.813h0L149.96,173.819h-.069l-5.906,3.4a45.053,45.053,0,0,1-6,2.779,40.567,40.567,0,0,1-13.617,2.856h-.207a32.992,32.992,0,0,1-8.689-1.34,62.536,62.536,0,0,1-8.093-2.915,77.16,77.16,0,0,1-8.365-4.227l-6.273-3.613h-.023L74.64,160.326l-.068-.1L59.27,151.4a44.874,44.874,0,0,1-5.416-3.813A40.4,40.4,0,0,1,44.575,137.2a32.477,32.477,0,0,1-3.243-8.213,62.209,62.209,0,0,1-1.553-8.526,77.428,77.428,0,0,1-.537-9.455V70.847a77.339,77.339,0,0,1,.537-9.45,62.169,62.169,0,0,1,1.553-8.522,32.48,32.48,0,0,1,3.243-8.211,40.4,40.4,0,0,1,9.279-10.379,44.861,44.861,0,0,1,5.42-3.815L77.218,20.106l3.8-2.192h-.076L99.011,7.483a77.305,77.305,0,0,1,8.376-4.229,62.654,62.654,0,0,1,8.1-2.914A33.031,33.031,0,0,1,124.179-1Zm36.74,17.721L142.981,6.365A43.757,43.757,0,0,0,137.228,3.7,38.366,38.366,0,0,0,124.346,1h-.167c-4.291,0-9.813,1.41-15.971,4.078A76.663,76.663,0,0,0,100.036,9.2l-.017.01-11.613,6.7h.083L78.218,21.838,60.266,32.207a43.829,43.829,0,0,0-5.184,3.658A38.371,38.371,0,0,0,46.3,45.679c-2.181,3.7-3.747,9.206-4.53,15.921a76.692,76.692,0,0,0-.527,9.218v40.22a76.783,76.783,0,0,0,.527,9.224c.783,6.719,2.349,12.226,4.53,15.926A38.371,38.371,0,0,0,55.081,146a43.827,43.827,0,0,0,5.185,3.658l15.71,9.065.068.1,17.207,9.934h.022l6.763,3.9a76.491,76.491,0,0,0,8.162,4.122c6.152,2.668,11.671,4.078,15.96,4.078h.187c9.5-.1,18.545-5.313,18.635-5.365l0,0,6.37-3.668h.068l38.283-22.113a43.9,43.9,0,0,0,5.186-3.658,38.473,38.473,0,0,0,8.793-9.815c2.183-3.705,3.749-9.222,4.527-15.953a76.467,76.467,0,0,0,.518-9.2V86.131l.091.136V65.132a44,44,0,0,0-.578-6.324,38.551,38.551,0,0,0-4.1-12.52c-2.12-3.745-6.117-7.861-11.559-11.9a76.5,76.5,0,0,0-7.705-5.048l-.018-.01L170.9,22.423l.054.108-10.087-5.81Z" transform="translate(182.857 -39.238) rotate(90)" fill="#fff"/></svg>