<svg xmlns="http://www.w3.org/2000/svg" width="20" height="20" viewBox="0 0 20 20"><g transform="translate(5095 18478)"><g transform="translate(-5095 -18478)" opacity="0.1"><path d="M10,2a8,8,0,1,0,8,8,8,8,0,0,0-8-8m0-2A10,10,0,1,1,0,10,10,10,0,0,1,10,0Z"/></g><path d="M10,0A10,10,0,0,1,20,10v.047h0v.21h0V10.3h0v.1h0v.046h0V10.5h0V10.6h0v.046h0v.009h0v.093h0v.009h0v.036h0V10.8h0v.12h0v.037h0v.018h0V11h0v.018h0v.009h0v.017h0v.027h0v.056h0v.017h0v.009h0v.018h0v.009h0v.02h0v.027h0v.008h0v.008h0v.036h0v.008h0V11.3h0v.027h0v.008h0v.009h0v.028h0v.008h0v.02h0l0,.036h0v.008h0l0,.036h0v.009h0V11.5h0l-.006.037h0v.009h0l-.006.037h0v.009h0a9.929,9.929,0,0,1-.967,2.961q-.117.228-.244.449h0v.007h0v.007h0l-.013.023h0v.007h0v.006h0v.006h0l-.009.015h0v.006h0v.006h0v.006h0l-.009.015h0v.006h0v.006h0v.006h0v.006h0l-.009.015h0v.005h0v.005h0v.007h0v.007h0v.007h0v.006h0v.008h0l-.01.015h0l-.007.012h0v.005h0v.005h0v.005h0l-.012.018h0v.005h0v.005h0v.005h0l-.016.024h0v.005h0V15.3h0l-.016.024h0v.006h0v.006h0l-.021.031h0v.006h0l-.025.037h0A10.046,10.046,0,0,1,17.573,16.7h0l-.031.032h0v0h0l-.026.027h0l-.02.02h0l-.02.02h0l-.014.014h0l-.01.01h0L17,17.138h0l-.006.006h0l-.006.006h0l-.006.006h0l-.006,0h0l0,0h0l-.006,0h0l-.006.006h0l0,0h0l-.013.012h-.01l-.006,0h0l-.013.012h0l0,0h0l-.006,0h0l-.02.018h0l-.006.006h0l-.006.006h0l-.026.024h0l-.006.006h0l-.026.024h0q-.319.284-.662.541a1,1,0,0,1-1.2-1.6,8.08,8.08,0,0,0,2.338-2.77A7.911,7.911,0,0,0,18,10a8.009,8.009,0,0,0-8-8,1,1,0,1,1,0-2Z" transform="translate(-5095 -18478)" fill="#212121"/></g></svg>